<svg xmlns="http://www.w3.org/2000/svg" viewBox="0 0 1920 1080"><defs><style>.a{fill:#fff;}.b{fill:none;stroke:#000;stroke-linecap:round;stroke-linejoin:round;stroke-width:4px;}.c{font-size:36px;}.c,.g,.i{font-family:ArialMT, Arial;}.d{letter-spacing:-0.037em;}.e{letter-spacing:-0.018em;}.f{letter-spacing:-0.111em;}.g,.k{font-size:48px;}.h{font-size:28px;}.i{font-size:60px;}.j{fill:#202020;}.k{font-family:Arial-BoldMT, Arial;font-weight:700;}.l{letter-spacing:-0.055em;}.m{font-size:24px;}</style></defs><rect class="a" x="1012" y="40" width="858" height="1000" rx="32.464"/><rect class="a" x="50" y="40" width="858" height="1000" rx="32.464"/><line class="b" x1="960" y1="39.5" x2="960" y2="1040.5"/><text class="c" transform="translate(578.538 357.254)">HTM<tspan class="d" x="77.977" y="0">L</tspan><tspan class="e" x="96.662" y="0"> </tspan><tspan class="f" x="106.014" y="0">T</tspan><tspan x="124.014" y="0">emplates</tspan><tspan x="11.979" y="43.2">or Components</tspan></text><text class="g" transform="translate(125.867 432.545)">Static<tspan x="-12" y="57.6">Assets</tspan></text><text class="g" transform="translate(199.15 247.073)">SASS<tspan x="42.691" y="57.6">or</tspan><tspan x="-1.324" y="115.2">SCSS</tspan></text><text class="g" transform="translate(502.022 587.073)">Bundler<tspan class="h"><tspan x="-61.721" y="33.6">(</tspan><tspan class="e" x="-52.396" y="33.6">W</tspan><tspan x="-26.475" y="33.6">ebpack / Browserify)</tspan></tspan></text><text class="g" transform="translate(333.646 741.019)">JS</text><text class="g" transform="translate(487.468 779.418)">HTM<tspan class="d" x="103.969" y="0">L</tspan></text><text class="g" transform="translate(751.688 821.8)">CSS</text><text class="i" transform="translate(369.357 982.418)">Browser</text><path class="j" d="M273.624,445.258l6.818.035,3.408.023,3.382.243,3.383.24c1.124.1,2.263.111,3.369.311l6.676.96a94.054,94.054,0,0,1,25.313,8.183,86.033,86.033,0,0,1,21.561,15.434,147.345,147.345,0,0,1,17.424,20.843c5.331,7.5,10.339,15.374,15.654,23.2a190.045,190.045,0,0,0,17.625,22.749,96.322,96.322,0,0,0,22.893,18.459c1.079.607,2.137,1.256,3.236,1.824l3.365,1.571,2.621,1.216a12.289,12.289,0,0,0,1.4.567l-3.135,7.787q3.693-.39,7.191-.88c1.158-.127,2.336-.43,3.483-.672l3.406-.783,3.309-.815c1.093-.32,2.182-.7,3.25-1.055q3.21-1.083,6.243-2.2-2.568-2.14-4.958-4.251c-.794-.709-1.584-1.386-2.342-2.113l-2.188-2.3-2.092-2.266a27.608,27.608,0,0,1-1.967-2.3q-1.854-2.433-3.509-4.773l-3.135,7.787a10.1,10.1,0,0,1-1.253-.506l-2.331-1.088-3-1.393c-.978-.506-1.915-1.09-2.876-1.629A86.785,86.785,0,0,1,405.214,531c-12.286-13.189-21.479-29.473-32.494-44.985a156.717,156.717,0,0,0-18.566-22.173,95.593,95.593,0,0,0-23.924-17.107,103.548,103.548,0,0,0-27.928-9.045l-7.225-1.04c-1.2-.211-2.412-.232-3.618-.336l-3.622-.258-3.622-.256-3.613-.029-7.226-.032Z"/><path class="j" d="M342.268,351.994c7.119,6.662,13.983,13.576,20.442,20.838A243.918,243.918,0,0,1,380.722,395.7a276.942,276.942,0,0,1,15.33,24.808c4.713,8.548,9.069,17.352,13.49,26.214s8.9,17.794,13.923,26.515A232.827,232.827,0,0,0,440.134,498.5a220.081,220.081,0,0,0,20,22.766c1.817,1.749,3.584,3.556,5.443,5.256l2.154,1.959,1.079.982L463.19,535.7c4.388,1.106,8.872,1.91,13.221,2.755,4.378.8,8.793,1.412,13.089,2.049-1.624-4.113-3.247-8.109-4.692-12.176-1.408-4.1-2.838-8.066-3.988-12.157L475.2,522.4l-1.04-.945-2.075-1.887c-1.791-1.637-3.483-3.371-5.23-5.051a210.659,210.659,0,0,1-19.14-21.778,223.2,223.2,0,0,1-15.987-24.24c-4.853-8.429-9.248-17.19-13.663-26.028s-8.829-17.776-13.669-26.556a286.676,286.676,0,0,0-15.857-25.658,253.851,253.851,0,0,0-18.7-23.733c-6.69-7.523-13.777-14.66-21.106-21.515Z"/><path class="j" d="M743.772,433.056c1.375,11.777,2.636,23.5,2.945,35.127a148.679,148.679,0,0,1-2.878,34.406,160.27,160.27,0,0,1-10.893,32.822l-3.766,7.882c-.6,1.326-1.336,2.6-2.014,3.888l-2.069,3.865c-.695,1.286-1.368,2.583-2.08,3.861l-.957,1.625-.717,1.217-7.271-4.2.046,6.406c.013,2.154.011,4.324-.086,6.467q-.218,6.46-.531,13.074,5.8-2.991,11.705-6.132c1.987-1.031,3.907-2.134,5.833-3.259l5.821-3.407-7.271-4.2.737-1.252.984-1.672c.736-1.32,1.435-2.664,2.155-4l2.142-4c.7-1.341,1.461-2.649,2.09-4.036l3.928-8.223a169.869,169.869,0,0,0,11.537-34.8,158.3,158.3,0,0,0,3.072-36.576c-.326-12.172-1.625-24.144-3.006-36Z"/><path class="j" d="M546.74,636.5a45.926,45.926,0,0,1-3.927,17.983,61.342,61.342,0,0,1-10.519,15.749c-8.651,9.551-19.785,17.006-31.638,22.836A172.793,172.793,0,0,1,463,706.16c-3.25.782-6.541,1.39-9.825,2.03-3.305.537-6.6,1.126-9.929,1.524-1.661.216-3.318.462-4.988.61l-2.073.213-1.4.143-.79-8.357A223.775,223.775,0,0,1,412.5,716.5a236.888,236.888,0,0,0,23.978,12.014l-.79-8.357,1.454-.149,2.159-.222c1.738-.156,3.467-.41,5.2-.636,3.468-.416,6.911-1.028,10.36-1.591,3.432-.666,6.87-1.3,10.275-2.122a182.189,182.189,0,0,0,39.723-13.828c12.64-6.233,24.72-14.223,34.5-24.994a70.775,70.775,0,0,0,12.157-18.267A55.474,55.474,0,0,0,556.26,636.5Z"/><path class="j" d="M655.969,637.959c1.65,5.225,3.16,10.491,4.45,15.805,1.258,5.319,2.333,10.673,3.165,16.054a132.348,132.348,0,0,1,1.194,32.27c-1.053,10.562-3.855,20.986-9.554,29.322A37.847,37.847,0,0,1,644.7,741.847c-1.079.612-2.116,1.293-3.218,1.867l-1.474.695-1.151.551-3.307-7.716c-3.208,6.139-9.457,11.876-17.052,16.257,1.9,1.006,3.881,2.118,5.956,3.028a56.417,56.417,0,0,0,6.527,2.455c1.139.34,2.307.7,3.5,1q1.785.373,3.656.711c.623.106,1.256.235,1.89.312l1.922.177c1.293.1,2.626.228,3.967.242l-3.307-7.716,1.436-.678,1.83-.871c1.376-.717,2.692-1.56,4.035-2.344a47.415,47.415,0,0,0,13.165-13.023,60.951,60.951,0,0,0,7.76-16.386,88.137,88.137,0,0,0,3.416-17.378A141.674,141.674,0,0,0,673,668.4c-.876-5.676-2-11.3-3.323-16.863-1.349-5.559-2.924-11.051-4.643-16.493Z"/><path class="j" d="M720.74,636.5a105.358,105.358,0,0,0,2.157,20.669,86.977,86.977,0,0,0,6.979,19.732c.827,1.537,1.594,3.113,2.479,4.614l2.743,4.448,3,4.253c1.029,1.391,2.129,2.718,3.192,4.078a153.766,153.766,0,0,0,14.091,14.772c9.807,9.189,20.26,17.289,28.66,26.648a59.2,59.2,0,0,1,10.184,15.128,16.3,16.3,0,0,1,.832,2.064l.768,2.085a6.891,6.891,0,0,1,.316,1.062l.1.411.079.311.318,1.243-8.161,1.964,1.069.811c.359.279.642.588.972.892q.958.921,1.952,1.938a19.5,19.5,0,0,1,1.805,2.177q.873,1.145,1.761,2.38c1.031,1.67,2.023,3.459,3.014,5.354q1.239,2.841,2.449,5.966,2.026-2.51,4.1-5.3c1.211-1.892,2.435-3.895,3.6-6.015q.757-1.608,1.5-3.308a31.241,31.241,0,0,0,1.381-3.494q.573-1.8,1.114-3.694c.17-.63.381-1.273.506-1.914l.362-1.946-8.162,1.964-.393-1.532-.1-.383-.132-.506a10.165,10.165,0,0,0-.391-1.306l-.935-2.561a22.427,22.427,0,0,0-1.021-2.52,68.609,68.609,0,0,0-11.782-17.606,177.108,177.108,0,0,0-14.588-14.168c-4.979-4.42-9.953-8.689-14.682-13.1a144.522,144.522,0,0,1-13.221-13.845c-.966-1.241-1.977-2.454-2.909-3.714l-2.707-3.836-2.451-3.978c-.79-1.34-1.461-2.739-2.2-4.1a77.472,77.472,0,0,1-6.186-17.49A95.914,95.914,0,0,1,730.26,636.5Z"/><text class="k" transform="translate(131.405 130.418)">[App Development with HTML]</text><text class="g" transform="translate(145.405 799.082)">Static<tspan x="-12" y="57.6">Assets</tspan></text><path class="j" d="M426.417,605.258a311.15,311.15,0,0,0-75.6,2.834c-24.934,4.059-49.584,11.181-72.332,22.808A167.248,167.248,0,0,0,246.5,652.032a133.009,133.009,0,0,0-25.6,28.847,124.111,124.111,0,0,0-15.74,35.285l-1.233,4.684-.3,1.172-.219,1.188-.438,2.377-.647,3.535-.267,1.46-8.293-1.3.536,1.658c.195.551.425,1.1.636,1.648l1.3,3.248q1.308,3.215,2.636,6.3c1.962,4.116,4.081,8.073,6.124,11.866,2.342-3.791,4.608-7.429,6.994-10.888q1.933-2.577,3.848-5.022l1.908-2.413c.321-.4.624-.793.959-1.18l1.049-1.141-8.294-1.3.25-1.358.6-3.29.4-2.212.2-1.107.283-1.086,1.146-4.341a114.552,114.552,0,0,1,14.532-32.59,123.454,123.454,0,0,1,23.774-26.778,157.682,157.682,0,0,1,30.172-19.921c21.621-11.059,45.375-17.96,69.508-21.882a301.7,301.7,0,0,1,73.244-2.748Z"/><path class="j" d="M199.74,879.5a57.136,57.136,0,0,0,4.769,22.25,72.169,72.169,0,0,0,12.271,18.688c9.9,11.044,22.172,19.27,35.041,25.682a183.617,183.617,0,0,0,40.488,14.218c3.472.843,6.981,1.49,10.482,2.178,3.519.577,7.032,1.2,10.571,1.626,1.766.241,3.532.482,5.3.645l2.193.228,1.454.15-.787,8.358A239.275,239.275,0,0,0,345.5,961.5a225.965,225.965,0,0,1-21.507-14.169l-.787,8.357-1.4-.145-2.106-.218c-1.7-.156-3.4-.388-5.091-.62-3.4-.41-6.761-1.006-10.134-1.557-3.35-.661-6.71-1.278-10.026-2.084A174.222,174.222,0,0,1,256.059,937.6c-12.076-6-23.4-13.681-32.176-23.5A62.648,62.648,0,0,1,213.23,897.93a47.6,47.6,0,0,1-3.97-18.43Z"/><path class="j" d="M359.74,753.5l.114,5.5.058,2.749c.032.917.112,1.835.165,2.752l.361,5.506.617,5.5a134.038,134.038,0,0,0,4.5,21.8,112.7,112.7,0,0,0,8.637,20.658,149.069,149.069,0,0,0,12.08,18.547c4.351,5.839,8.842,11.4,12.988,17.052a121.182,121.182,0,0,1,10.965,17.506,91.892,91.892,0,0,1,7.084,19.1l.6,2.49.3,1.245.23,1.264.373,2.077.244,1.35-8.283,1.362A122.7,122.7,0,0,1,425.5,920.5a136.452,136.452,0,0,0,11.227-24.815l-8.283,1.362-.264-1.469-.408-2.259-.253-1.376-.325-1.365-.652-2.73a101.45,101.45,0,0,0-7.817-21.067,130.805,130.805,0,0,0-11.787-18.849c-4.326-5.89-8.83-11.467-13.029-17.108a139.58,139.58,0,0,1-11.345-17.393,103.057,103.057,0,0,1-7.9-18.9A124.351,124.351,0,0,1,370.5,774.33l-.582-5.165-.339-5.207c-.051-.868-.128-1.733-.157-2.605l-.054-2.617-.111-5.236Z"/><path class="j" d="M561.74,799.5c-.079,10.871-1.047,21.8-4.907,31.316a45.734,45.734,0,0,1-8.01,12.98c-3.408,3.951-7.494,7.6-11.634,11.672a78.466,78.466,0,0,0-11.469,13.7,73.045,73.045,0,0,0-7.734,16.271,113.9,113.9,0,0,0-4.1,17.156l-.854,6.195c-.065.489-.1.978-.146,1.466l-8.347-.9q1.35,3.225,2.715,6.344c.956,2.071,1.969,4.1,2.955,6.109l1.5,2.986,1.6,2.938L516.5,933.5l3.381-5.619,1.689-2.755,1.783-2.7c1.2-1.782,2.366-3.545,3.583-5.26q1.89-2.55,3.765-4.993l-8.346-.9c.047-.461.076-.927.137-1.385l.8-5.8a104.578,104.578,0,0,1,3.72-15.628,63.5,63.5,0,0,1,6.7-14.124,69.005,69.005,0,0,1,10.164-12.1c3.866-3.819,8.2-7.665,12.159-12.232a55.4,55.4,0,0,0,9.613-15.6,73.427,73.427,0,0,0,4.489-17.433l.541-4.392.306-4.375c.126-1.461.162-2.913.184-4.362l.093-4.353Z"/><path class="j" d="M797.74,836.5a88.243,88.243,0,0,1-4.384,27.035,98.547,98.547,0,0,1-12.2,24.732c-10.455,15.342-24.709,28.059-40.6,38.05a191.249,191.249,0,0,1-51.778,22.355,231.747,231.747,0,0,1-27.8,5.723l-7.05.9-2.737.258-1.4.126-.774-8.358A225.852,225.852,0,0,1,627.5,961.5a239.3,239.3,0,0,0,23.952,12.015l-.774-8.359,1.455-.132,2.846-.269,7.336-.935a241.088,241.088,0,0,0,28.978-5.965,200.757,200.757,0,0,0,54.338-23.48c16.788-10.565,32.041-24.094,43.409-40.77a108.13,108.13,0,0,0,13.368-27.121A97.807,97.807,0,0,0,807.26,836.5Z"/><text class="i" transform="translate(1331.357 982.418)">Browser</text><text class="k" transform="translate(1101.409 130.418)">[App Development with FIWL]</text><text class="g" transform="translate(1069.246 611.782)">Static<tspan class="l" x="120.047" y="0"> </tspan><tspan x="130.734" y="0">Assets</tspan><tspan class="m"><tspan x="11.994" y="28.8">(including manifest.json</tspan><tspan x="62.695" y="57.6">and style.varl)</tspan></tspan></text><text class="g" transform="translate(1408.999 562.509)">FIW<tspan class="d" x="87.961" y="0">L</tspan></text><text class="g" transform="translate(1588.796 681.945)">Widgets</text><text class="g" transform="translate(1765.92 779.563)">JS</text><path class="j" d="M1211.868,680.4a612.223,612.223,0,0,0-14.233,84.851c-2.557,28.613-2.882,57.62,1.255,86.348a210.646,210.646,0,0,0,10.433,42.364,142.633,142.633,0,0,0,9.115,20.08,113.5,113.5,0,0,0,12.508,18.389,100.6,100.6,0,0,0,7.653,8.189,95.522,95.522,0,0,0,8.609,7.242,90.1,90.1,0,0,0,19.59,11.054c1.757.66,3.488,1.4,5.279,1.952l2.67.881,2.7.764c.9.264,1.8.5,2.716.7l.891.209.366.085,1.465.342-1.757,8.209A105.886,105.886,0,0,0,1306.5,961.5a92.64,92.64,0,0,1-19.862-15.162l-1.757,8.209-1.325-.311-.331-.077-.806-.189c-.827-.178-1.643-.4-2.451-.635l-2.437-.686-2.4-.794c-1.613-.5-3.158-1.163-4.736-1.75a82.307,82.307,0,0,1-32.154-23.786,103.968,103.968,0,0,1-11.47-16.876,133.237,133.237,0,0,1-8.519-18.778,201.247,201.247,0,0,1-9.943-40.44c-3.994-27.7-3.707-56.047-1.194-84.108a602.569,602.569,0,0,1,14.016-83.517Z"/><path class="j" d="M1460.74,573.5q.066,46.849,2.157,93.646c1.314,31.184,3.318,62.314,4.91,93.375.78,15.529,1.441,31.043,1.589,46.51l.044,5.8-.048,5.788c-.029,1.929-.018,3.861-.08,5.786l-.182,5.772-.091,2.887-.164,2.876-.326,5.752c-.13,1.914-.32,3.818-.476,5.728s-.3,3.822-.558,5.712l-.682,5.689c-.229,1.895-.578,3.764-.861,5.648-.522,3.779-1.388,7.47-2.111,11.2a159.2,159.2,0,0,1-6.577,21.636c-.664,1.758-1.477,3.451-2.205,5.18l-1.13,2.578-1.277,2.5-1.842,3.62c-.2.416-.445.8-.675,1.2l-7.329-4.093A116.588,116.588,0,0,1,1441.5,933.5a129.928,129.928,0,0,0,24.3-12.38l-7.329-4.093c.249-.429.515-.848.728-1.3l1.989-3.9,1.373-2.7,1.218-2.771c.786-1.858,1.655-3.685,2.368-5.569a168.38,168.38,0,0,0,7.007-23.036c.767-3.917,1.672-7.82,2.221-11.761.3-1.967.659-3.931.9-5.9l.709-5.913c.265-1.97.4-3.942.578-5.914s.357-3.945.491-5.916l.336-5.913.168-2.956.094-2.953.186-5.9c.063-1.969.052-3.932.081-5.9l.049-5.894-.045-5.885c-.149-15.69-.818-31.313-1.6-46.9-1.6-31.171-3.6-62.231-4.906-93.309q-2.085-46.61-2.149-93.233Z"/><path class="j" d="M1670.74,694.5c-.073,12.085-1.186,24.161-4.482,35.557a83.693,83.693,0,0,1-16.289,31.028c-7.557,9.07-17.011,16.6-27.118,23.413-10.105,6.845-20.85,13.11-31.361,20.051-10.514,6.912-20.815,14.6-29.906,23.75a122.6,122.6,0,0,0-22.688,31.232,137.348,137.348,0,0,0-7.475,17.792,154.578,154.578,0,0,0-5.092,18.5l-.512,2.338-.432,2.35c-.279,1.567-.594,3.131-.842,4.7l-.523,3.507-.217,1.45-8.315-1.153A232.762,232.762,0,0,0,1526.5,933.5a218.891,218.891,0,0,1,15.047-20.868l-8.315-1.153.207-1.384.5-3.348c.236-1.5.537-2.981.8-4.472l.41-2.235.486-2.214a145.439,145.439,0,0,1,4.792-17.421,127.991,127.991,0,0,1,6.95-16.551,113,113,0,0,1,20.959-28.843c8.448-8.5,18.159-15.788,28.4-22.517,10.229-6.76,20.977-13.022,31.458-20.116,10.458-7.058,20.7-15.134,29.089-25.2a93.278,93.278,0,0,0,10.9-16.311,95.176,95.176,0,0,0,7.226-18.186c3.614-12.528,4.773-25.451,4.851-38.183Z"/><path class="j" d="M1788.74,790.5a150.612,150.612,0,0,1-4.772,37.438,157.36,157.36,0,0,1-13.8,35.174c-11.963,22.3-29.106,41.74-49.209,57.274a217.993,217.993,0,0,1-67.478,35,239.854,239.854,0,0,1-37.251,8.593l-4.732.714-4.761.51-3.517.378-1.4.15-.746-8.361c-3.39,2.482-6.891,4.852-10.482,7.3-3.6,2.3-7.3,4.549-11.093,6.83,3.794,2.1,7.687,4.238,11.674,6.312,3.982,1.926,8.066,3.915,12.238,5.765l-.745-8.361,1.451-.156,3.653-.391,4.943-.532,4.917-.74a249.271,249.271,0,0,0,38.734-8.937,227.521,227.521,0,0,0,70.415-36.543c21.048-16.266,39.109-36.7,51.772-60.3a166.761,166.761,0,0,0,14.637-37.314,160.1,160.1,0,0,0,5.071-39.8Z"/><text class="g" transform="translate(466.364 246.854)">Bootstrap</text><path class="j" d="M448.5,229.74a79.1,79.1,0,0,0-17.651,1.99,67.693,67.693,0,0,0-16.713,6.383,101.084,101.084,0,0,0-14.528,9.751c-4.5,3.541-8.718,7.21-12.96,10.7a156.98,156.98,0,0,1-12.935,9.761A91.952,91.952,0,0,1,359.828,276a93.568,93.568,0,0,1-15.009,5.051l-3.885.882-1.715.307-1.353.231-1.418-8.274A115.5,115.5,0,0,1,316,289a129.1,129.1,0,0,0,24.893,11.127l-1.418-8.274,1.472-.252,1.869-.337,4.259-.965a103.1,103.1,0,0,0,16.6-5.591,101.658,101.658,0,0,0,15.309-8.459A166.842,166.842,0,0,0,392.7,265.909c8.7-7.179,16.78-14.517,25.952-19.416a58.093,58.093,0,0,1,14.385-5.5A69.58,69.58,0,0,1,448.5,239.26Z"/><path class="j" d="M517.74,254.5l.26,18.368.131,9.183c.077,3.061.249,6.121.369,9.181l.8,18.36,1.325,18.336c1.98,24.431,5.009,48.792,9.059,72.944,3.978,24.162,9.063,48.077,13.136,71.935.553,2.984.955,5.967,1.408,8.95.428,2.983.926,5.965,1.3,8.95l1.008,8.954c.151,1.493.374,2.985.467,4.478l.293,4.48c.179,2.987.43,5.974.553,8.96l.032,3.339.014,1.4-8.394.133,3.346,5.4,1.669,2.761,1.5,2.793q3,5.626,5.986,11.588,3.57-5.41,7.161-11.155l1.794-2.893,1.622-2.932,3.229-5.983-8.393.134-.015-1.462-.037-3.476c-.126-3.1-.383-6.189-.57-9.285l-.306-4.64c-.1-1.548-.324-3.074-.479-4.612l-1.038-9.212c-.38-3.062-.886-6.093-1.323-9.141-.462-3.041-.876-6.1-1.434-9.108-4.133-24.2-9.194-47.985-13.134-71.929q-6.018-35.89-8.96-72.138l-1.311-18.131-.794-18.166c-.118-3.029-.29-6.055-.366-9.085l-.128-9.1L527.26,254.5Z"/></svg>