<svg xmlns="http://www.w3.org/2000/svg" viewBox="0 0 1920 1080"><defs><style>.a{fill:#4d4d4d;}.b{fill:#f2f2f2;}.b,.c,.d{opacity:0.25;}.c,.x{fill:#f9c;}.ad,.d{fill:#6f3;}.e,.u{fill:#fff;}.f,.v{font-size:36px;}.f,.j{fill:#9ff;}.ad,.f,.u,.x,.z{font-family:ArialMT, Arial;}.g,.z{fill:#3cf;}.h{fill:#3ff;}.i,.t{fill:#fc0;}.k{fill:#39f;}.l,.m,.n{fill:#f63;}.ab,.m{letter-spacing:-0.111em;}.n,.q{letter-spacing:-0.092em;}.o,.p,.q{fill:#b3b3b3;}.aa,.p{letter-spacing:-0.018em;}.r{fill:#6ff;}.s{fill:#ff0;}.t{letter-spacing:-0.074em;}.ad,.u,.x,.z{font-size:48px;}.w{fill:#ffa6d2;}.y{fill:#4dd2ff;}.ac{fill:#79ff4d;}</style></defs><rect class="a" width="1920" height="1080" rx="64"/><rect class="b" x="73" y="88.457" width="832" height="87"/><rect class="c" x="73" y="218.457" width="923" height="477.943"/><rect class="d" x="73" y="724.457" width="1032" height="237"/><polygon class="e" points="904.5 116.717 1233.227 116.717 1233.227 125.112 1256 111.956 1233.227 98.802 1233.227 107.197 904.5 107.197 904.5 116.717"/><text class="f" transform="translate(62.982 78.225)">&lt;<tspan class="g" x="21.023" y="0">stage</tspan><tspan class="e"><tspan x="0" y="43.2" xml:space="preserve">  </tspan><tspan class="h" x="20.004" y="43.2">title</tspan><tspan x="76.025" y="43.2">=</tspan><tspan class="i" x="97.049" y="43.2">&quot;Sample Stage&quot;</tspan><tspan x="0" y="86.4" xml:space="preserve">  </tspan><tspan class="h" x="20.004" y="86.4">description</tspan><tspan x="194.098" y="86.4">=</tspan><tspan class="i" x="215.121" y="86.4">&quot;This is an example stage&quot;</tspan><tspan class="j" x="638.877" y="86.4">&gt;</tspan><tspan x="0" y="172.8" xml:space="preserve">  </tspan><tspan class="j" x="20.004" y="172.8">&lt;</tspan><tspan class="g" x="41.027" y="172.8">SeriesLayout</tspan><tspan x="0" y="216" xml:space="preserve">    </tspan><tspan class="h" x="40.008" y="216">orientation</tspan><tspan x="208.125" y="216">=</tspan><tspan class="i" x="229.148" y="216">&quot;vertical&quot;</tspan><tspan x="0" y="259.2" xml:space="preserve">    </tspan><tspan class="h" x="40.008" y="259.2">alignContents</tspan><tspan x="260.156" y="259.2">=</tspan><tspan class="i" x="281.18" y="259.2">&quot;center&quot;</tspan><tspan x="0" y="302.4" xml:space="preserve">    </tspan><tspan class="h" x="40.008" y="302.4">spacing</tspan><tspan x="164.092" y="302.4">=</tspan><tspan class="i" x="185.115" y="302.4">&quot;16dp&quot;</tspan><tspan class="j" x="290.76" y="302.4">&gt;</tspan><tspan x="0" y="345.6" xml:space="preserve">    </tspan><tspan class="j" x="40.008" y="345.6">&lt;</tspan><tspan class="k" x="61.031" y="345.6">Label</tspan><tspan x="0" y="388.8" xml:space="preserve">      </tspan><tspan class="h" x="60.012" y="388.8">text</tspan><tspan x="118.037" y="388.8">=</tspan><tspan class="i" x="139.061" y="388.8">&quot;This is an Example Stage, feel free to modify :)&quot;</tspan><tspan x="0" y="432" xml:space="preserve">      </tspan><tspan class="h" x="60.012" y="432">textSize</tspan><tspan x="188.068" y="432">=</tspan><tspan class="l" x="209.092" y="432">&quot;@style/title</tspan><tspan class="m" x="398.461" y="432">T</tspan><tspan class="l" x="416.461" y="432">extSize&quot;</tspan><tspan x="547.295" y="432"> </tspan><tspan class="j" x="557.297" y="432">/&gt;</tspan><tspan x="0" y="475.2" xml:space="preserve">    </tspan><tspan class="j" x="40.008" y="475.2">&lt;</tspan><tspan class="k" x="61.031" y="475.2">Button</tspan><tspan x="0" y="518.4" xml:space="preserve">      </tspan><tspan class="h" x="60.012" y="518.4">text</tspan><tspan x="118.037" y="518.4">=</tspan><tspan class="i" x="139.061" y="518.4">&quot;OK&quot;</tspan><tspan x="0" y="561.601" xml:space="preserve">      </tspan><tspan class="h" x="60.012" y="561.601">onSelect</tspan><tspan x="200.109" y="561.601">=</tspan><tspan class="l" x="221.133" y="561.601">&quot;alert(&apos;</tspan><tspan class="n" x="322.805" y="561.601">Y</tspan><tspan class="l" x="343.512" y="561.601">ou pressed OK Button&apos;)&quot;</tspan><tspan x="729.369" y="561.601"> </tspan><tspan class="j" x="739.371" y="561.601">/&gt;</tspan><tspan x="0" y="604.8" xml:space="preserve">  </tspan><tspan class="j" x="20.004" y="604.8">&lt;/</tspan><tspan class="g" x="51.029" y="604.8">SeriesLayout</tspan><tspan class="j" x="261.158" y="604.8">&gt;</tspan><tspan x="0" y="648" xml:space="preserve">  </tspan><tspan x="0" y="691.2" xml:space="preserve">  </tspan><tspan class="j" x="20.004" y="691.2">&lt;</tspan><tspan class="g" x="41.027" y="691.2">event</tspan><tspan x="129.094" y="691.2"> </tspan><tspan class="h" x="139.096" y="691.2">on</tspan><tspan x="179.139" y="691.2">=</tspan><tspan class="i" x="200.162" y="691.2">&quot;ready&quot;</tspan><tspan class="j" x="315.773" y="691.2">&gt;</tspan><tspan x="0" y="734.4" xml:space="preserve">    </tspan><tspan class="o" x="40.008" y="734.4">//</tspan><tspan class="p" x="60.012" y="734.4"> </tspan><tspan class="q" x="69.363" y="734.4">Y</tspan><tspan class="o" x="90.07" y="734.4">our JS script goes here...</tspan><tspan x="0" y="777.601" xml:space="preserve">    </tspan><tspan class="r" x="40.008" y="777.601">console</tspan><tspan x="164.092" y="777.601">.</tspan><tspan class="s" x="174.094" y="777.601">log</tspan><tspan x="222.135" y="777.601">(</tspan><tspan class="i" x="234.123" y="777.601">&quot;Hurra</tspan><tspan class="t" x="336.92" y="777.601">y</tspan><tspan class="i" x="352.248" y="777.601">... stage is ready!\ncurrent &apos;this&apos; context:&quot;</tspan><tspan x="997.067" y="777.601">);</tspan><tspan x="0" y="820.8" xml:space="preserve">    </tspan><tspan class="r" x="40.008" y="820.8">console</tspan><tspan x="164.092" y="820.8">.</tspan><tspan class="s" x="174.094" y="820.8">log</tspan><tspan x="222.135" y="820.8">(</tspan><tspan class="r" x="234.123" y="820.8">this</tspan><tspan x="290.145" y="820.8">);</tspan><tspan x="0" y="864" xml:space="preserve">  </tspan><tspan class="j" x="20.004" y="864">&lt;/</tspan><tspan class="g" x="51.029" y="864">event</tspan><tspan class="j" x="139.096" y="864">&gt;</tspan><tspan x="0" y="907.2" xml:space="preserve">  </tspan></tspan><tspan x="0" y="950.4">&lt;/</tspan><tspan class="g" x="31.025" y="950.4">stage</tspan><tspan x="119.092" y="950.4">&gt;</tspan></text><text class="u" transform="translate(1268.909 131.675)">Stage parameters<tspan class="v"><tspan x="0" y="43.2">(known as &quot;header&quot; in HTML)</tspan></tspan></text><polygon class="w" points="996 432.26 1255.227 432.26 1255.227 440.655 1278 427.499 1255.227 414.345 1255.227 422.74 996 422.74 996 432.26"/><text class="x" transform="translate(1292.036 443.582)">Layout</text><polygon class="y" points="333.5 246.217 1102.227 246.217 1102.227 254.612 1125 241.456 1102.227 228.302 1102.227 236.697 333.5 236.697 333.5 246.217"/><text class="z" transform="translate(1137.854 259.82)">Root Layout</text><polygon class="y" points="182 73.717 997.727 73.717 997.727 82.112 1020.5 68.956 997.727 55.802 997.727 64.197 182 64.197 182 73.717"/><text class="z" transform="translate(1033.854 83.32)">Root<tspan class="aa" x="101.391" y="0"> </tspan><tspan class="ab" x="113.859" y="0">T</tspan><tspan x="137.859" y="0">ag</tspan></text><polygon class="ac" points="1104.5 816.717 1393.227 816.717 1393.227 825.112 1416 811.956 1393.227 798.802 1393.227 807.197 1104.5 807.197 1104.5 816.717"/><text class="ad" transform="translate(1430.036 828.039)">Script / Event tags</text></svg>