<svg xmlns="http://www.w3.org/2000/svg" viewBox="0 0 400 300"><g id="_499_innovation_flatline" data-name="#499_innovation_flatline"><path d="M259,105.19c.27-1.07.53-2.15.81-3.22.14-.56.31-1.11.49-1.65a1.54,1.54,0,0,1,1.56-1.16c.86,0,1.71.13,2.56.19a7.9,7.9,0,0,0,1.37.06,1.5,1.5,0,0,0,.91-.38c.89-1,1.74-2,2.57-3.1a1.46,1.46,0,0,0,.17-1.36c-.3-1-.64-2-.93-3a3.85,3.85,0,0,1-.22-1.2,1.17,1.17,0,0,1,.33-.81,18.69,18.69,0,0,1,4.85-2.73,1.25,1.25,0,0,1,1.48.39c.72.83,1.47,1.64,2.17,2.49a2.06,2.06,0,0,0,2.07.83c1.11-.18,2.23-.29,3.34-.44a1.25,1.25,0,0,0,1-.7c.35-.62.67-1.26,1-1.89s.58-1.08.89-1.61a1.29,1.29,0,0,1,1.5-.66c1.59.4,3.19.81,4.77,1.27a1.36,1.36,0,0,1,1,1.42c0,.87-.13,1.73-.19,2.6,0,.4-.06.81-.06,1.22a1.67,1.67,0,0,0,.64,1.37c.88.7,1.77,1.39,2.63,2.12a1.82,1.82,0,0,0,1.86.36c1.08-.34,2.16-.7,3.24-1a1.47,1.47,0,0,1,1.93.72c.75,1.26,1.47,2.54,2.17,3.83a1.59,1.59,0,0,1-.38,2.26c-.53.5-1.11.94-1.66,1.42q-.58.53-1.14,1.08a1.45,1.45,0,0,0-.41,1.19c.12,1.16.24,2.32.39,3.47a1.86,1.86,0,0,0,1.06,1.46c.67.32,1.34.63,2,1a11.74,11.74,0,0,1,1.21.67,1.38,1.38,0,0,1,.66,1.61c-.39,1.44-.8,2.88-1.21,4.31a3.24,3.24,0,0,1-.29.63,1.25,1.25,0,0,1-1.24.72l-3.06-.25h-.23a2.16,2.16,0,0,0-2.23,1c-.51.72-1.1,1.38-1.65,2.07a2.18,2.18,0,0,0-.37,2.23c.33,1,.65,1.91.94,2.87a1.46,1.46,0,0,1-.78,2c-1.3.77-2.63,1.51-4,2.22a1.4,1.4,0,0,1-1.88-.32c-.59-.63-1.15-1.3-1.71-2-1.21-1.42-1.49-1.53-3.34-1.28l-2.16.31a2,2,0,0,0-1.62,1.14c-.38.77-.74,1.55-1.14,2.31a6.89,6.89,0,0,1-.75,1.1,1,1,0,0,1-1.12.4l-4.53-1.26a3.19,3.19,0,0,1-.59-.28,1.23,1.23,0,0,1-.73-1.24c.08-1,.16-2,.23-3,0-.3,0-.61,0-.92a1.57,1.57,0,0,0-.62-1.3c-.86-.66-1.71-1.33-2.56-2a1.75,1.75,0,0,0-1.77-.28c-.95.33-1.91.62-2.87.93l-.11,0c-1.26.34-1.69.21-2.35-.92s-1.41-2.54-2.06-3.84a1.32,1.32,0,0,1,.37-1.88c.72-.66,1.47-1.3,2.25-1.9a2.35,2.35,0,0,0,1-2.41c-.16-1-.27-2.08-.42-3.12a1.3,1.3,0,0,0-.7-1c-.92-.48-1.84-.95-2.75-1.44a2.85,2.85,0,0,1-1.49-1.31Zm33.67,3a9.93,9.93,0,0,0-10.82-9.06,10.08,10.08,0,0,0-8.89,10.76,9.92,9.92,0,0,0,10.66,9A9.81,9.81,0,0,0,292.64,108.16Z" fill="#fff"/><path d="M279,133.29a1.59,1.59,0,0,1-.43-.06l-1.06-.29-3.48-1a4.17,4.17,0,0,1-.6-.27,1.78,1.78,0,0,1-1.08-1.77l.11-1.33.12-1.68a8.42,8.42,0,0,0,0-.87,1.08,1.08,0,0,0-.42-.92c-.83-.63-1.64-1.28-2.46-1.92l-.11-.09a1.26,1.26,0,0,0-1.3-.2c-.66.23-1.33.44-2,.66l-.89.28-.13,0c-1.5.41-2.15.15-2.91-1.15s-1.54-2.79-2.08-3.86a1.8,1.8,0,0,1,.48-2.48c.85-.77,1.58-1.38,2.28-1.93a1.87,1.87,0,0,0,.79-1.94c-.1-.64-.19-1.3-.27-2l-.15-1.17a.82.82,0,0,0-.44-.66l-1.1-.57c-.55-.29-1.11-.57-1.66-.87a3.28,3.28,0,0,1-1.71-1.55.42.42,0,0,1,0-.16l0-.38a.43.43,0,0,1,0-.16l.2-.83.6-2.4c.15-.56.32-1.12.5-1.68a2,2,0,0,1,2-1.5c.58,0,1.15.06,1.72.12l.86.07.36,0a4.92,4.92,0,0,0,.93,0,1.16,1.16,0,0,0,.59-.21c.94-1.07,1.82-2.16,2.54-3.08a.94.94,0,0,0,.09-.91c-.13-.44-.27-.88-.42-1.33s-.35-1.11-.51-1.67a4.29,4.29,0,0,1-.24-1.34,1.59,1.59,0,0,1,.53-1.2,18.36,18.36,0,0,1,5-2.81,1.74,1.74,0,0,1,2,.54l.76.86c.48.54,1,1.07,1.42,1.63a1.56,1.56,0,0,0,1.6.66c.73-.12,1.45-.21,2.18-.3l1.18-.15a.76.76,0,0,0,.59-.44l.6-1.14.56-1c.24-.45.48-.91.75-1.34a1.78,1.78,0,0,1,2-.9c1.93.49,3.4.88,4.78,1.28a1.86,1.86,0,0,1,1.33,1.91c0,.59-.06,1.18-.12,1.75,0,.29-.05.58-.08.87s-.05.79-.05,1.19a1.17,1.17,0,0,0,.45,1l.62.49c.68.54,1.36,1.08,2,1.64a1.34,1.34,0,0,0,1.39.26l1.58-.5,1.66-.53a2,2,0,0,1,2.51,1c.76,1.28,1.49,2.57,2.18,3.84a2.07,2.07,0,0,1-.48,2.86c-.32.3-.65.58-1,.86l-.68.58c-.38.33-.75.69-1.11,1a.94.94,0,0,0-.28.79l.07.64c.1.94.21,1.88.33,2.81a1.34,1.34,0,0,0,.78,1.08l.86.41,1.15.55c.39.2.83.43,1.25.7a1.85,1.85,0,0,1,.87,2.16q-.58,2.16-1.2,4.32a3.47,3.47,0,0,1-.31.67,1.78,1.78,0,0,1-1.75,1l-3.06-.25a1.42,1.42,0,0,1-.26,0,1.69,1.69,0,0,0-1.75.8c-.37.52-.77,1-1.17,1.48l-.5.61a1.69,1.69,0,0,0-.29,1.75c.37,1.07.68,2,.95,2.9a1.94,1.94,0,0,1-1,2.6c-1.21.71-2.51,1.44-4,2.23a1.86,1.86,0,0,1-2.47-.42c-.49-.52-.95-1.06-1.41-1.61l-.32-.37c-1.1-1.3-1.22-1.34-2.89-1.11l-2.17.31a1.51,1.51,0,0,0-1.24.87l-.36.75q-.37.79-.78,1.56a6.71,6.71,0,0,1-.8,1.19A1.53,1.53,0,0,1,279,133.29Zm-10.17-11.46a2.24,2.24,0,0,1,1.39.5l.11.09c.81.64,1.63,1.29,2.45,1.92a2.06,2.06,0,0,1,.81,1.68c0,.32,0,.65,0,1,0,.56-.08,1.13-.13,1.69l-.1,1.33a.75.75,0,0,0,.47.76l.09,0a2.37,2.37,0,0,0,.4.19l3.47,1,1.05.29a.53.53,0,0,0,.6-.23,6.48,6.48,0,0,0,.7-1c.26-.5.51-1,.76-1.52l.37-.77a2.5,2.5,0,0,1,2-1.41l2.16-.31c2-.28,2.47-.1,3.79,1.45l.32.38c.45.53.9,1.06,1.38,1.56a.89.89,0,0,0,1.27.23c1.47-.78,2.77-1.51,4-2.21.7-.41.79-.65.55-1.46s-.57-1.79-.93-2.85a2.67,2.67,0,0,1,.45-2.71l.51-.62c.39-.46.78-.93,1.12-1.42a2.67,2.67,0,0,1,2.71-1.21l.21,0,3,.24a.72.72,0,0,0,.77-.47,2.32,2.32,0,0,0,.25-.51c.41-1.44.81-2.87,1.2-4.31a.86.86,0,0,0-.44-1.06,11.33,11.33,0,0,0-1.16-.64l-1.13-.55-.86-.41a2.31,2.31,0,0,1-1.34-1.85c-.13-.94-.23-1.89-.33-2.84l-.07-.63a1.91,1.91,0,0,1,.56-1.6c.37-.38.76-.75,1.16-1.1l.7-.6c.32-.26.64-.53.94-.82.63-.59.69-.91.29-1.65-.69-1.26-1.41-2.54-2.16-3.82a1,1,0,0,0-1.35-.5l-1.65.53-1.6.51a2.34,2.34,0,0,1-2.33-.46c-.65-.55-1.32-1.08-2-1.61l-.62-.5a2.15,2.15,0,0,1-.83-1.76c0-.42,0-.84.06-1.26s.05-.6.08-.89c0-.58.1-1.12.11-1.68a.88.88,0,0,0-.6-.93c-1.37-.4-2.84-.79-4.75-1.27a.8.8,0,0,0-.95.44c-.25.42-.49.86-.72,1.3l-.55,1c-.2.39-.41.77-.62,1.16a1.74,1.74,0,0,1-1.33.94l-1.19.15c-.71.09-1.43.18-2.14.29a2.55,2.55,0,0,1-2.54-1c-.44-.54-.91-1.07-1.38-1.59-.26-.29-.52-.58-.77-.88a.77.77,0,0,0-.94-.25A18.08,18.08,0,0,0,268.89,90a.77.77,0,0,0-.13.42,3.67,3.67,0,0,0,.2,1.05q.24.82.51,1.65l.42,1.34a2,2,0,0,1-.26,1.82c-.74.93-1.62,2-2.58,3.12a2,2,0,0,1-1.24.55,6.08,6.08,0,0,1-1.13,0l-.33,0-.88-.08c-.55,0-1.1-.1-1.65-.11a1.08,1.08,0,0,0-1.08.81c-.17.54-.34,1.08-.48,1.62-.21.8-.4,1.59-.6,2.38l-.18.76,0,.21a2.56,2.56,0,0,0,1.22,1l1.66.87,1.1.57a1.81,1.81,0,0,1,1,1.41l.15,1.19c.09.64.17,1.28.27,1.92a2.87,2.87,0,0,1-1.17,2.88c-.68.53-1.39,1.13-2.22,1.89-.51.46-.56.69-.26,1.28.54,1,1.26,2.44,2.06,3.81.52.91.71,1,1.78.69l1-.32,2-.64A2.58,2.58,0,0,1,268.86,121.83Zm13.89-2.42a10.4,10.4,0,0,1-10.32-9.5,10.28,10.28,0,0,1,2.43-7.58,10.33,10.33,0,0,1,18.28,5.77,9.88,9.88,0,0,1-2.17,7.37,10.37,10.37,0,0,1-7.34,3.9A8.77,8.77,0,0,1,282.75,119.41Zm-.07-19.84-.82,0a9.46,9.46,0,0,0-6.24,3.38,9.37,9.37,0,0,0,7.92,15.4,9.43,9.43,0,0,0,6.65-3.53,8.91,8.91,0,0,0,2-6.62v0A9.37,9.37,0,0,0,282.68,99.57Z" fill="#d1d3d4"/><path d="M140.06,49.38s-24.74-1.23-29.74,15.09V97.14S129.55,82,140.06,87.05Z" fill="#d1d3d4"/><path d="M110.32,97.64a.59.59,0,0,1-.22,0,.5.5,0,0,1-.28-.45V64.47a.68.68,0,0,1,0-.14c5.06-16.5,30-15.47,30.25-15.45a.5.5,0,0,1,.48.5V87.05a.5.5,0,0,1-.24.43.48.48,0,0,1-.48,0c-10.11-4.88-29,9.88-29.22,10A.45.45,0,0,1,110.32,97.64Zm.5-33.09V96.13c3.74-2.79,19.12-13.59,28.75-9.84V49.86C136.15,49.79,115.32,50.09,110.82,64.55Z" fill="#231f20"/><path d="M165.61,222.62c-3.39,1.12-6.83,2.11-10.14,3.41-5.52,2.17-10,.67-13-4.13-4.7-7.43-11.23-12.61-18.5-17.36-10.67-7-18-16.88-20.9-29.36-5.9-25.13,8.74-46.44,34.61-52.4,38.17-8.77,61.46,26,51,59-2.83,8.93-5.48,17.59-4.78,27.08.39,5.28-2.49,8.67-7.64,10.19C172.68,220.14,169.16,221.43,165.61,222.62Z" fill="#fff"/><path d="M150.79,227.51c-3.53,0-6.5-1.8-8.73-5.34-5-7.85-12.06-13.1-18.36-17.21a48.15,48.15,0,0,1-21.11-29.66c-2.79-11.91-1.14-23.22,4.77-32.71,6.25-10,17-17.25,30.22-20.29,16.74-3.85,31.72.27,42.18,11.61,11.31,12.25,14.91,30.67,9.41,48.06-2.69,8.5-5.47,17.29-4.76,26.89.39,5.35-2.37,9-8,10.71-2.45.72-4.92,1.57-7.31,2.39l-3.34,1.13h0l-3.1,1c-2.32.74-4.72,1.51-7,2.41A13.43,13.43,0,0,1,150.79,227.51Zm-1.31-105.62a52.28,52.28,0,0,0-11.68,1.38c-13,3-23.48,10-29.59,19.85-5.77,9.26-7.38,20.31-4.65,31.95,2.86,12.18,9.82,22,20.69,29.05,6.39,4.17,13.6,9.51,18.65,17.52,2.95,4.67,7.11,6,12.38,3.93,2.33-.91,4.74-1.68,7.08-2.43l3.09-1,3.33-1.13c2.39-.82,4.87-1.68,7.35-2.4,5.12-1.51,7.63-4.85,7.28-9.67-.73-9.8,2.09-18.68,4.8-27.27,5.4-17,1.88-35.09-9.18-47.08A39.14,39.14,0,0,0,149.48,121.89Zm16.13,100.73h0Z" fill="#231f20"/><rect x="148.18" y="222.41" width="38.17" height="10.84" rx="4.67" transform="translate(-63.55 64.7) rotate(-18.46)" fill="#fff"/><path d="M153.83,238.28a5.14,5.14,0,0,1-4.9-3.53l-.48-1.43a5.18,5.18,0,0,1,3.27-6.54l27.34-9.13a5.19,5.19,0,0,1,6.55,3.27l.47,1.42a5.18,5.18,0,0,1-3.27,6.55h0L155.47,238A5.17,5.17,0,0,1,153.83,238.28Zm26.87-19.89a4.28,4.28,0,0,0-1.32.21L152,227.73A4.18,4.18,0,0,0,149.4,233l.48,1.42a4.11,4.11,0,0,0,2.09,2.41,4.16,4.16,0,0,0,3.19.23l27.34-9.13a4.17,4.17,0,0,0,2.63-5.28l-.47-1.42A4.18,4.18,0,0,0,180.7,218.39Zm2,10h0Z" fill="#231f20"/><rect x="151.62" y="232.7" width="38.17" height="10.84" rx="4.67" transform="translate(-66.63 66.32) rotate(-18.46)" fill="#fff"/><path d="M157.26,248.57a5.2,5.2,0,0,1-4.9-3.54l-.47-1.42a5.12,5.12,0,0,1,.28-4,5,5,0,0,1,3-2.59l27.34-9.13A5.16,5.16,0,0,1,189,231.2l.47,1.43a5.15,5.15,0,0,1-3.26,6.54h0l-27.34,9.13A5.23,5.23,0,0,1,157.26,248.57Zm26.88-19.9a4.08,4.08,0,0,0-1.33.22L155.47,238a4.19,4.19,0,0,0-2.41,2.1,4.09,4.09,0,0,0-.22,3.18l.47,1.42a4.16,4.16,0,0,0,5.28,2.64l27.34-9.13a4.16,4.16,0,0,0,2.63-5.28l-.47-1.42a4.15,4.15,0,0,0-2.09-2.41A4.2,4.2,0,0,0,184.14,228.67Zm2,10h0Z" fill="#231f20"/><path d="M186.46,238.57c1.29,3.88-4,9.12-11.7,11.71s-15.09,1.54-16.38-2.33Z" fill="#231f20"/><path d="M166.59,252.2a17,17,0,0,1-2.51-.17c-3.29-.47-5.49-1.86-6.18-3.92a.52.52,0,0,1,.32-.64l28.08-9.37a.5.5,0,0,1,.63.31c.69,2.07-.22,4.5-2.57,6.85a24.41,24.41,0,0,1-9.44,5.49A26.58,26.58,0,0,1,166.59,252.2Zm-7.54-3.95c.73,1.44,2.54,2.42,5.17,2.79a25.93,25.93,0,0,0,19.43-6.48c1.87-1.88,2.73-3.75,2.45-5.34Z" fill="#231f20"/><path d="M157.54,220.06a.52.52,0,0,1-.49-.38l-.25-1c-2-8.43-4.14-17.09-7.86-25a32.7,32.7,0,0,1-16.16-1,17.59,17.59,0,0,1-8-4.81,9.44,9.44,0,0,1-2.23-8.94,8.92,8.92,0,0,1,12.14-4.7c3.6,2.08,7.45,6.28,11.46,12.48a55,55,0,0,1,3.31,5.89,33.23,33.23,0,0,0,12.32-5.26c-.08-.36-.16-.71-.23-1.07l-.18-.88c-1.44-6.82-3.22-15.31-.27-22,.47-1.08,2.24-4.63,5.07-5.22a4.1,4.1,0,0,1,3.74,1.22,13.75,13.75,0,0,1,3.95,11.9,22.39,22.39,0,0,1-5.5,11.42,31.72,31.72,0,0,1-5.46,5,113.8,113.8,0,0,0,9.85,26.37.5.5,0,0,1-.22.68.51.51,0,0,1-.67-.22,114.81,114.81,0,0,1-9.84-26.21A34.33,34.33,0,0,1,150,193.47c3.69,7.91,5.79,16.53,7.82,24.93l.26,1a.5.5,0,0,1-.37.6ZM131,174.24a8.33,8.33,0,0,0-3,.58,7.36,7.36,0,0,0-4.48,4.36,8.56,8.56,0,0,0,2,8,16.61,16.61,0,0,0,7.51,4.52,31.69,31.69,0,0,0,15.4,1.06,55,55,0,0,0-3.13-5.54c-3.92-6.06-7.66-10.15-11.12-12.16A6.44,6.44,0,0,0,131,174.24ZM167,159.07a3.51,3.51,0,0,0-.55.05c-1.87.4-3.48,2.66-4.36,4.65-2.81,6.37-1.07,14.68.33,21.37l.19.87c0,.22.09.43.13.65a30.44,30.44,0,0,0,4.94-4.62,21.38,21.38,0,0,0,5.27-10.9,12.76,12.76,0,0,0-3.63-11A3.48,3.48,0,0,0,167,159.07Z" fill="#d1d3d4"/><path d="M253.34,74.49c-.3,0-14,38.8-14,38.8H276.5l7.78-40.56Z" fill="#fff"/><path d="M276.5,113.79H239.38a.49.49,0,0,1-.4-.21.5.5,0,0,1-.07-.46C252.52,74.45,252.84,74,253.32,74l30.94-1.76a.5.5,0,0,1,.4.17.54.54,0,0,1,.12.42L277,113.38A.49.49,0,0,1,276.5,113.79Zm-36.41-1h36l7.58-39.52-30,1.7C252.62,77.39,245.18,98.34,240.09,112.79Z" fill="#231f20"/><path d="M246.78,100.92a.5.5,0,0,1-.4-.19.52.52,0,0,1-.08-.47l4.52-13.56a.48.48,0,0,1,.41-.34l5.76-.7a.48.48,0,0,1,.44.17.5.5,0,0,1,.1.47l-4.19,13.87a.49.49,0,0,1-.45.35l-6.08.4Zm4.89-13.61-4.19,12.56,5-.32,3.87-12.8Z" fill="#d1d3d4"/><path d="M272.71,109.49H253.34a.48.48,0,0,1-.4-.2.47.47,0,0,1-.08-.44l9.47-31.72a.51.51,0,0,1,.45-.35l18-1.3a.49.49,0,0,1,.41.18.48.48,0,0,1,.11.44l-8.08,33A.51.51,0,0,1,272.71,109.49Zm-18.7-1h18.31l7.82-32-16.95,1.22Z" fill="#d1d3d4"/><path d="M225.84,97s4.3-3.61,6.29-5.25,3.91-6.14,5.71-6.12S236.42,91,236.42,91s6.69-5.13,8.77-5.28,3.25,3.36,2.73,4.45-6.19,3.75-8.29,5.85-9,6.8-9,6.8" fill="#fff"/><path d="M230.67,103.27a.5.5,0,0,1-.28-.92c.07,0,6.85-4.69,8.89-6.74a29.53,29.53,0,0,1,4.9-3.42,15.45,15.45,0,0,0,3.28-2.29,3.71,3.71,0,0,0-.68-2.78,1.77,1.77,0,0,0-1.55-1c-1.42.1-5.86,3.15-8.5,5.17a.5.5,0,0,1-.64,0,.49.49,0,0,1-.09-.63c1.21-2,2.1-4.21,1.86-4.61-.84,0-2,1.61-3,3a15.94,15.94,0,0,1-2.45,3c-2,1.64-6.28,5.25-6.28,5.25l-.65-.76s4.31-3.62,6.29-5.26a15.16,15.16,0,0,0,2.27-2.79c1.24-1.77,2.42-3.44,3.75-3.44h0a1,1,0,0,1,.9.5c.4.74-.14,2.25-.79,3.6,2.19-1.57,5.68-3.91,7.21-4a2.76,2.76,0,0,1,2.45,1.39,4.54,4.54,0,0,1,.76,3.77c-.31.64-1.53,1.41-3.66,2.71A29,29,0,0,0,240,96.32c-2.11,2.11-8.75,6.67-9,6.86A.47.47,0,0,1,230.67,103.27Z" fill="#231f20"/><path d="M228.59,68.25a34.25,34.25,0,0,1,6.74-3.68c2.73-.9,6.19-1.51,5.41-2.67s-7.26.52-7.26.52,3.78-5.79,5.9-6.94,5.16-1.06,3.66-2.16-6-1.27-7.61-.46-10.67,10.77-11.13,11.3S228.59,68.25,228.59,68.25Z" fill="#fff"/><path d="M228.59,68.75a.49.49,0,0,1-.3-.1c-2-1.5-4.43-3.48-4.52-4.32a.64.64,0,0,1,.15-.5c.09-.1,9.53-10.52,11.28-11.41s6.43-.75,8.14.5c.19.14.69.51.59,1s-.82.8-1.9,1.09a11,11,0,0,0-2.42.87c-1.35.73-3.64,3.77-5,5.7,2.33-.52,5.8-1.09,6.53,0a1,1,0,0,1,.14.93c-.3.84-1.65,1.27-4,2-.6.17-1.22.35-1.81.54a34.58,34.58,0,0,0-6.6,3.62A.52.52,0,0,1,228.59,68.75Zm-3.76-4.43a24.73,24.73,0,0,0,3.78,3.32,32.69,32.69,0,0,1,6.56-3.55c.6-.19,1.23-.38,1.85-.55,1.19-.35,3.19-.93,3.33-1.33-.39-.48-3.53-.14-6.74.69a.5.5,0,0,1-.53-.19.51.51,0,0,1,0-.57c.16-.24,3.87-5.91,6.08-7.1a12.41,12.41,0,0,1,2.63-1c.34-.09.78-.21,1-.31l-.05-.05c-1.38-1-5.7-1.13-7.09-.42S226.2,62.78,224.83,64.32Z" fill="#231f20"/><path d="M182.21,76.53S205.88,79.9,209.46,79l14-15.7,8.21,5.35S227.35,81.55,221.43,89s-44.65,9.06-44.65,9.06Z" fill="#ffc300"/><path d="M233.51,213.27s-2.73,5.9-2.11,8.25,11.19,17.95,12.72,16.19-.78-17-.78-17Z" fill="#231f20"/><path d="M243.8,238.35l-.28,0c-2.93-.69-12.1-14.77-12.6-16.67-.64-2.46,1.85-8,2.14-8.59a.5.5,0,0,1,.33-.27.49.49,0,0,1,.42.08l9.83,7.4a.47.47,0,0,1,.19.32c.39,2.59,2.26,15.61.66,17.45A.88.88,0,0,1,243.8,238.35ZM233.71,214c-.83,1.92-2.25,5.75-1.83,7.36.7,2.65,10.23,15.95,11.9,15.95h0c.88-1,0-10.16-.92-16.41Z" fill="#231f20"/><polygon points="239.08 201.02 233.51 213.27 243.34 220.67 250.71 206.34 239.08 201.02" fill="#fff"/><path d="M243.34,221.17a.54.54,0,0,1-.3-.1l-9.83-7.4a.51.51,0,0,1-.16-.61l5.57-12.25a.53.53,0,0,1,.29-.26.5.5,0,0,1,.38,0l11.63,5.32a.51.51,0,0,1,.27.29.53.53,0,0,1,0,.39l-7.37,14.33a.47.47,0,0,1-.34.26Zm-9.21-8.06,9,6.8L250,206.57l-10.7-4.89Z" fill="#231f20"/><path d="M209.9,131.83s41.11,10.43,49.18,17,1.87,53.82-7.91,62.52l-15.38-8.09s8.2-36.2,5.19-39.18-36.93-7.35-36.93-7.35l-22.18-24.81Z" fill="#231f20"/><path d="M251.17,211.85a.46.46,0,0,1-.23-.06l-15.38-8.09a.5.5,0,0,1-.26-.55c3.15-13.89,7.38-36.69,5.33-38.72-2.38-2.35-27.26-6-36.64-7.21a.47.47,0,0,1-.31-.16L181.5,132.25a.49.49,0,0,1-.09-.53.51.51,0,0,1,.46-.3l28-.09H210c1.68.43,41.31,10.54,49.38,17.1,3,2.43,3.76,9.47,3.88,14.95.37,16.82-4.8,42.12-11.78,48.33A.46.46,0,0,1,251.17,211.85ZM236.36,203l14.73,7.76c6.66-6.43,11.55-30.94,11.19-47.33-.16-7.45-1.41-12.5-3.51-14.21-7.75-6.31-47.13-16.42-48.93-16.89l-26.86.1,21.32,23.84c4.26.55,34,4.5,37,7.47.88.87,1.71,4-1.33,21.14C238.54,193.13,236.76,201.19,236.36,203Z" fill="#231f20"/><polygon points="205.93 233.41 204.64 244.7 215.54 249.92 218.02 234.34 205.93 233.41" fill="#fff"/><path d="M215.54,250.42a.59.59,0,0,1-.22,0l-10.9-5.22a.51.51,0,0,1-.28-.51l1.29-11.29a.48.48,0,0,1,.54-.44l12.09.93a.48.48,0,0,1,.35.19.46.46,0,0,1,.1.39L216,250a.48.48,0,0,1-.26.36A.46.46,0,0,1,215.54,250.42Zm-10.37-6,10,4.78,2.29-14.39-11.07-.85Z" fill="#231f20"/><path d="M169.68,142.4s37.33,27.32,37.83,40.09-4.43,53.12-4.43,53.12l18.76,4.49s13.55-53.62,9-67.29S200,130.62,200,130.62Z" fill="#231f20"/><path d="M221.84,240.6l-.12,0L203,236.09a.49.49,0,0,1-.38-.54c0-.4,4.92-40.47,4.42-53.05-.48-12.38-37.26-39.43-37.63-39.7a.53.53,0,0,1-.2-.47.52.52,0,0,1,.32-.4l30.31-11.77a.49.49,0,0,1,.55.12c1.07,1.17,26.35,28.76,30.91,42.37s-8.39,65.38-9,67.57A.5.5,0,0,1,221.84,240.6Zm-18.21-5.37,17.84,4.27c1.33-5.35,13.12-53.83,8.86-66.53s-27.88-38.92-30.48-41.76L170.7,142.53c5.38,4,36.84,27.92,37.31,39.94S204.16,230.79,203.63,235.23Z" fill="#231f20"/><path d="M169.36,63.7a9,9,0,0,1-4.07-1.58c-2.27-1.66-3.44-4.41-4.45-7a15,15,0,0,1-1.32-5.58c.07-3.4,2.33-6.33,4.65-8.81,1.74-1.86,3.72-4.23,2.89-6.64a6,6,0,0,1-.53-1.58c-.06-1.37,1.78-2.17,3.06-1.65a6.28,6.28,0,0,1,2.74,3,3.93,3.93,0,0,0,1-3.54c-.11-.51-.32-1.06-.06-1.5a1.49,1.49,0,0,1,.93-.57,6.94,6.94,0,0,1,8.21,5,4.6,4.6,0,0,0,.4-3.78,13.62,13.62,0,0,1,9,15A27.81,27.81,0,0,1,190,51.25a5.94,5.94,0,0,1-1.72,1.85c-4.66,3.89-6.76,8.8-13.06,10.23A16.66,16.66,0,0,1,169.36,63.7Z" fill="#fff"/><path d="M171.17,64.32a14.26,14.26,0,0,1-1.88-.12A9.36,9.36,0,0,1,165,62.52c-2.35-1.72-3.57-4.53-4.62-7.26A15.17,15.17,0,0,1,159,49.49c.08-3.62,2.46-6.65,4.79-9.14,1.85-2,3.48-4.11,2.78-6.13-.06-.16-.12-.31-.19-.46a3.56,3.56,0,0,1-.37-1.27,2.06,2.06,0,0,1,.94-1.78,3.06,3.06,0,0,1,2.8-.36,5.78,5.78,0,0,1,2.61,2.56,3.49,3.49,0,0,0,.43-2.54l-.06-.22a2.11,2.11,0,0,1,.05-1.65,1.93,1.93,0,0,1,1.24-.79,7.13,7.13,0,0,1,5.48.9,7.38,7.38,0,0,1,2.88,3.15,4,4,0,0,0-.1-2.2.5.5,0,0,1,.64-.63,14.29,14.29,0,0,1,8.46,8.13,14.08,14.08,0,0,1,.82,7.4,28,28,0,0,1-1.75,7,6.14,6.14,0,0,1-1.73,1.92l-.12.1a40.51,40.51,0,0,0-3.88,3.87c-2.55,2.8-5,5.45-9.39,6.46A19.32,19.32,0,0,1,171.17,64.32Zm-2.43-33.16a2.14,2.14,0,0,0-1.19.36,1.09,1.09,0,0,0-.52.93,2.66,2.66,0,0,0,.29.91c.07.18.15.35.21.53,1,2.87-1.6,5.65-3,7.14-2.2,2.35-4.45,5.2-4.52,8.48a14.32,14.32,0,0,0,1.29,5.39c1,2.7,2.15,5.26,4.28,6.82a8.42,8.42,0,0,0,3.84,1.49h0a16,16,0,0,0,5.69-.37c4.13-.94,6.44-3.47,8.88-6.16a41.37,41.37,0,0,1,4-4l.12-.1A5.4,5.4,0,0,0,189.58,51a28.82,28.82,0,0,0,1.65-6.72,13.17,13.17,0,0,0-.76-6.88,13.34,13.34,0,0,0-7-7.22,5,5,0,0,1-.68,3.23.5.5,0,0,1-.91-.15,6.43,6.43,0,0,0-7.59-4.61,1,1,0,0,0-.63.33c-.12.2,0,.53.06.89l.06.24a4.41,4.41,0,0,1-1.09,4,.45.45,0,0,1-.42.15.49.49,0,0,1-.38-.24,5.74,5.74,0,0,0-2.49-2.77A1.8,1.8,0,0,0,168.74,31.16Z" fill="#231f20"/><path d="M190.83,53.71s3.49,6.43,2.55,7.62-3.63.11-3.63.11" fill="#fff"/><path d="M191.9,62.39a7.18,7.18,0,0,1-2.34-.48.5.5,0,0,1-.27-.65.49.49,0,0,1,.64-.28c.61.24,2.48.77,3.06,0,.39-.5-.82-3.8-2.6-7.07a.49.49,0,0,1,.2-.68.51.51,0,0,1,.68.2c1.09,2,3.54,6.86,2.5,8.17A2.28,2.28,0,0,1,191.9,62.39Z" fill="#231f20"/><path d="M190.66,45.6c2.38,2.31,1.26,6.66,1,9.53q-.57,6.06-1.42,12.08c-.36,2.55-7,2-8.1,1.17L182,76.9s-2,4.54-7.1,1.61S168.83,72,168.83,72l1.45-11.64s4.37.41,7.41-4.59,3.63-13,3.63-13S188.34,43.34,190.66,45.6Z" fill="#fff"/><path d="M178.13,80a7.09,7.09,0,0,1-3.46-1.06c-5.25-3-6.28-6.62-6.32-6.77a.41.41,0,0,1,0-.19l1.45-11.65a.51.51,0,0,1,.54-.43c.17,0,4.12.3,7-4.35,2.94-4.83,3.54-12.72,3.55-12.8a.5.5,0,0,1,.54-.46c.29,0,7.22.59,9.65,3h0c2.16,2.09,1.69,5.58,1.32,8.39-.07.54-.14,1.07-.19,1.55-.37,4-.85,8.1-1.41,12.1a2.35,2.35,0,0,1-1.66,1.81,11.34,11.34,0,0,1-6.45.06l-.1,7.76a.65.65,0,0,1,0,.19,5.25,5.25,0,0,1-2.9,2.67A4.73,4.73,0,0,1,178.13,80Zm-8.79-8c.19.54,1.39,3.55,5.83,6.08a5.06,5.06,0,0,0,4.08.75,4.25,4.25,0,0,0,2.27-2l.11-8.41a.51.51,0,0,1,.29-.44.49.49,0,0,1,.52,0c.6.48,4.26,1,6.26.18.63-.25,1-.6,1-1,.56-4,1-8,1.41-12.06,0-.49.12-1,.19-1.58.34-2.59.77-5.8-1-7.55s-6.93-2.44-8.54-2.62c-.18,1.87-1,8.37-3.65,12.74s-6.12,4.79-7.4,4.83Z" fill="#231f20"/><path d="M190.39,64.19s-3.29,1.66-4.68-1.72" fill="#fff"/><path d="M188.6,65.1a3.55,3.55,0,0,1-1.25-.22,3.77,3.77,0,0,1-2.11-2.22.51.51,0,0,1,.28-.66.5.5,0,0,1,.65.28,2.78,2.78,0,0,0,1.53,1.66,3.48,3.48,0,0,0,2.47-.2.5.5,0,0,1,.67.23.51.51,0,0,1-.22.67A5,5,0,0,1,188.6,65.1Z" fill="#231f20"/><path d="M182.86,55.63a5.51,5.51,0,0,0-.9-2.87,8.05,8.05,0,0,0-1.3-2,2.7,2.7,0,0,0-2.12-.85,2.46,2.46,0,0,0-1.7,1.12,4.54,4.54,0,0,0-.67,2,8.67,8.67,0,0,0,3.33,8l-.2-.26" fill="#fff"/><path d="M179.5,61.56a.45.45,0,0,1-.29-.1,9.25,9.25,0,0,1-3.54-8.5,5.2,5.2,0,0,1,.76-2.17,3,3,0,0,1,2-1.34,3.09,3.09,0,0,1,2.53,1,8,8,0,0,1,1.39,2.08,5.9,5.9,0,0,1,.95,3.14.52.52,0,0,1-.53.46.49.49,0,0,1-.46-.53,5,5,0,0,0-.84-2.6,7.37,7.37,0,0,0-1.22-1.84,2.11,2.11,0,0,0-1.7-.71,2,2,0,0,0-1.34.9,4.14,4.14,0,0,0-.6,1.75,8.26,8.26,0,0,0,3,7.44l.05,0,.21.26a.5.5,0,0,1-.4.81Z" fill="#231f20"/><path d="M182.13,68.38s-3.34-1.37-4.74-3.86c0,0-.3,6.17,4.82,8.4Z" fill="#231f20"/><path d="M182.21,73.42a.52.52,0,0,1-.21,0c-5.37-2.34-5.11-8.82-5.11-8.89a.5.5,0,0,1,.39-.46.51.51,0,0,1,.55.24c1.29,2.31,4.46,3.63,4.49,3.64a.5.5,0,0,1,.31.46l.08,4.55a.5.5,0,0,1-.23.42A.45.45,0,0,1,182.21,73.42ZM178,66.15a8,8,0,0,0,3.7,6l-.05-3.4A12.59,12.59,0,0,1,178,66.15Z" fill="#231f20"/><ellipse cx="188.77" cy="50.71" rx="1.45" ry="0.57" transform="matrix(0.25, -0.97, 0.97, 0.25, 92.33, 220.73)" fill="#231f20"/><path d="M164.46,69s14.79.69,20.73,8.64S195.91,116,198.82,118,210,131.26,209.9,131.83s-42.35,14-42.35,14-2.48-9.75-7.14-22.38S152.14,69.86,164.46,69Z" fill="#ffc300"/><path d="M202.8,122.52a.52.52,0,0,1-.39-.19,52.77,52.77,0,0,1-9.62-21.67c-2.18-12.28-6.26-19.74-6.3-19.81a.5.5,0,0,1,.19-.68.5.5,0,0,1,.68.2c0,.07,4.2,7.66,6.41,20.11a51.77,51.77,0,0,0,9.42,21.22.5.5,0,0,1-.07.7A.51.51,0,0,1,202.8,122.52Z" fill="#231f20"/><path d="M176.52,81.37c.34.42,17.06,27.09,17.06,27.09l33.25-16,8.12,9.36S206.93,123,196,126.59,160,91.14,160.28,86.85,171.72,75.42,176.52,81.37Z" fill="#ffc300"/><path d="M193.58,109a.51.51,0,0,1-.43-.23S178.23,85,178,84.66a.5.5,0,0,1,.84-.54c.19.29,12.95,20.6,14.88,23.68l17.62-9.21a.5.5,0,0,1,.67.21.5.5,0,0,1-.21.68l-18,9.42A.49.49,0,0,1,193.58,109Z" fill="#231f20"/><path d="M195.26,126.61c-7,0-14.52-5.91-22.46-17.62a.49.49,0,0,1,.13-.69.51.51,0,0,1,.7.13c8.66,12.78,16.73,18.48,24,16.94s21.8-13,21.94-13.08a.49.49,0,0,1,.7.08.49.49,0,0,1-.08.7c-.6.48-14.8,11.67-22.36,13.27A12,12,0,0,1,195.26,126.61Z" fill="#231f20"/><path d="M182.51,75.62,181.72,78l1.95,2.54s-3.88,19.8-33.37,4L140.82,88l5.63,7.67s35.48,13.65,38.24-14.86l.5-3.18Z" fill="#231f20"/><path d="M163.88,99.4a46,46,0,0,1-6.73-.53,58.58,58.58,0,0,1-10.88-2.76.41.41,0,0,1-.22-.17l-5.63-7.67a.49.49,0,0,1,.23-.76l9.49-3.41a.47.47,0,0,1,.4,0c11.13,6,19.84,7.52,25.87,4.67a12.88,12.88,0,0,0,6.72-8.15l-1.8-2.36a.5.5,0,0,1-.08-.46l.79-2.37a.51.51,0,0,1,.32-.32.49.49,0,0,1,.45.08l2.67,2a.49.49,0,0,1,.2.47l-.5,3.18c-.69,7.19-3.54,12.39-8.44,15.43C172.9,98.66,168.23,99.4,163.88,99.4Zm-17.12-4.17c1.7.62,19,6.68,29.45.21,4.63-2.86,7.32-7.81,8-14.7l.46-2.91-1.88-1.4-.49,1.47,1.78,2.33a.48.48,0,0,1,.09.4,13.57,13.57,0,0,1-7.3,9.06c-6.3,3-15.24,1.44-26.59-4.58l-8.65,3.11Z" fill="#231f20"/><path d="M204.64,244.7s-2.66,10-2.3,10.87,16.76,21.62,18.3,15.2-5.1-20.85-5.1-20.85Z" fill="#231f20"/><path d="M219.31,272.5c-4.73,0-17.06-15.86-17.43-16.74s1.27-7.4,2.28-11.19a.46.46,0,0,1,.27-.32.51.51,0,0,1,.42,0l10.9,5.22a.47.47,0,0,1,.24.24c.28.59,6.69,14.66,5.13,21.17a1.8,1.8,0,0,1-1.65,1.61ZM205,245.41c-1.18,4.51-2.28,9.35-2.15,10,.73,1.39,13,16.53,16.62,16.09.25,0,.56-.16.72-.85,1.4-5.82-4.27-18.76-5-20.36Z" fill="#231f20"/><path d="M222.28,158.39a.47.47,0,0,1-.39-.2l-14.2-18.05a.5.5,0,1,1,.79-.61l14.19,18.05a.5.5,0,0,1-.08.7A.51.51,0,0,1,222.28,158.39Z" fill="#fff"/><polygon points="276.5 113.29 276.9 89.35 285.08 51.05 284.28 72.73 276.5 113.29" fill="#fff"/><path d="M276.5,113.79h-.05a.51.51,0,0,1-.45-.51l.4-23.94,8.19-38.4a.51.51,0,0,1,.55-.39.5.5,0,0,1,.44.52l-.8,21.68L277,113.38A.49.49,0,0,1,276.5,113.79Zm7.87-57-7,32.7-.29,18.08,6.69-34.9Z" fill="#231f20"/><path d="M89.88,120.8c.16-.47.32-1,.49-1.43.09-.24.18-.49.29-.73a.69.69,0,0,1,.75-.46c.39,0,.77.12,1.15.19a4.58,4.58,0,0,0,.62.08.76.76,0,0,0,.43-.14c.45-.42.87-.86,1.29-1.31a.69.69,0,0,0,.13-.61c-.1-.46-.21-.93-.31-1.39a1.75,1.75,0,0,1,0-.56.5.5,0,0,1,.18-.35,8.47,8.47,0,0,1,2.31-1,.58.58,0,0,1,.66.24c.29.4.6.79.88,1.21a1,1,0,0,0,.91.46c.51,0,1,0,1.53-.07a.57.57,0,0,0,.46-.28c.19-.27.36-.55.54-.82s.3-.47.46-.69a.58.58,0,0,1,.71-.25l2.11.76a.62.62,0,0,1,.38.69c0,.39-.12.78-.19,1.17,0,.18,0,.36-.07.55a.76.76,0,0,0,.24.65c.37.35.75.7,1.11,1.06a.84.84,0,0,0,.82.24l1.52-.35a.67.67,0,0,1,.84.41c.29.6.57,1.21.84,1.82a.73.73,0,0,1-.26,1c-.26.2-.54.38-.81.58s-.38.29-.56.45a.61.61,0,0,0-.23.52c0,.53,0,1.06,0,1.59a.84.84,0,0,0,.43.7c.28.17.58.34.86.52a6,6,0,0,1,.53.34.63.63,0,0,1,.23.76c-.23.64-.47,1.28-.71,1.91a1.2,1.2,0,0,1-.16.27.56.56,0,0,1-.59.28l-1.38-.23h-.1a1,1,0,0,0-1,.36c-.26.31-.56.59-.83.88a1,1,0,0,0-.26,1c.11.45.22.89.31,1.34s0,.68-.43.89c-.62.3-1.25.58-1.89.86a.64.64,0,0,1-.83-.22c-.25-.31-.47-.64-.7-1-.5-.69-.62-.76-1.47-.71l-1,0a.92.92,0,0,0-.78.46c-.2.33-.4.67-.61,1a3.4,3.4,0,0,1-.38.47.47.47,0,0,1-.52.14l-2-.75c-.09,0-.17-.1-.26-.15a.56.56,0,0,1-.28-.59c.07-.46.15-.91.22-1.36a3,3,0,0,0,0-.42.67.67,0,0,0-.23-.61l-1.08-1a.8.8,0,0,0-.79-.2L92,129.3l-.05,0c-.59.1-.78,0-1-.51s-.54-1.21-.79-1.82a.6.6,0,0,1,.24-.84c.36-.27.72-.54,1.1-.78a1.05,1.05,0,0,0,.53-1.05c0-.48,0-1-.06-1.43a.62.62,0,0,0-.28-.5c-.4-.26-.8-.5-1.19-.76a1.33,1.33,0,0,1-.63-.65ZM105,123.46a4.53,4.53,0,0,0-4.56-4.53A4.59,4.59,0,0,0,96,123.47a4.51,4.51,0,1,0,9,0Z" fill="#fff"/><path d="M97.94,134.61a.87.87,0,0,1-.35-.07l-2-.75a1.58,1.58,0,0,1-.32-.17,1.09,1.09,0,0,1-.53-1.11l.22-1.36a2.22,2.22,0,0,0,0-.37c0-.13,0-.18-.06-.21l-.93-.86-.16-.16a.3.3,0,0,0-.33-.07l-1,.23-.37.08c-.89.16-1.3,0-1.64-.77s-.55-1.23-.8-1.85a1.08,1.08,0,0,1,.4-1.42c.37-.28.74-.55,1.13-.8a.59.59,0,0,0,.31-.6c0-.3,0-.61,0-.91l0-.53a.13.13,0,0,0,0-.1l-1.2-.76a1.75,1.75,0,0,1-.82-.92.4.4,0,0,1,0-.15v-.18a.45.45,0,0,1,0-.16l.12-.36c.12-.36.24-.72.37-1.07s.19-.51.3-.76a1.19,1.19,0,0,1,1.27-.77c.26,0,.52.08.79.13l.54.09.37,0a.31.31,0,0,0,.13,0c.4-.39.82-.82,1.23-1.26,0,0,0-.1,0-.17l-.14-.6c-.06-.27-.11-.53-.17-.79a2.69,2.69,0,0,1-.06-.7,1,1,0,0,1,.42-.73A8.85,8.85,0,0,1,97,112.56a1.07,1.07,0,0,1,1.19.42l.31.41c.2.27.4.54.58.82a.46.46,0,0,0,.46.24c.34,0,.68,0,1,0l.54,0a6.34,6.34,0,0,0,.38-.54l.31-.48c.13-.19.25-.38.39-.57a1.07,1.07,0,0,1,1.27-.42c.71.25,1.43.5,2.13.77a1.11,1.11,0,0,1,.7,1.19c0,.28-.08.55-.13.82l-.06.39a4.46,4.46,0,0,0-.07.51.24.24,0,0,0,.08.24l.28.27c.28.26.57.53.84.81a.35.35,0,0,0,.37.1l.73-.17.78-.18a1.19,1.19,0,0,1,1.41.68c.29.61.57,1.22.83,1.84a1.2,1.2,0,0,1-.4,1.6c-.16.13-.33.24-.5.36l-.32.23-.53.42a.13.13,0,0,0-.06.14v.34c0,.41,0,.82,0,1.23a.34.34,0,0,0,.18.3l.38.22.5.3c.19.12.38.24.56.38a1.12,1.12,0,0,1,.4,1.33c-.23.63-.47,1.27-.72,1.91a1.52,1.52,0,0,1-.19.34,1.05,1.05,0,0,1-1.11.52l-1.37-.22-.14,0a.5.5,0,0,0-.55.21c-.19.22-.4.43-.61.64l-.24.25a.52.52,0,0,0-.14.53c.12.45.23.91.32,1.36a1.14,1.14,0,0,1-.7,1.45c-.63.3-1.27.58-1.91.85a1.13,1.13,0,0,1-1.43-.36c-.2-.27-.4-.54-.59-.82l-.12-.16c-.38-.54-.38-.54-1-.5l-1,0a.39.39,0,0,0-.37.22l-.21.33c-.13.23-.27.46-.41.68a3.53,3.53,0,0,1-.44.55A1,1,0,0,1,97.94,134.61Zm-4.32-6.15a1.26,1.26,0,0,1,.89.36l.17.16.91.85a1.17,1.17,0,0,1,.39,1c0,.15,0,.31,0,.46l-.22,1.37s0,0,.06.09l.16.1,2,.75c.11-.14.22-.27.31-.41s.27-.43.39-.65l.21-.34a1.42,1.42,0,0,1,1.18-.7l1,0a1.68,1.68,0,0,1,1.9.92l.12.17c.19.26.37.52.57.76s.12.13.25.07c.63-.26,1.25-.54,1.87-.84a.78.78,0,0,0,.18-.11h0a.71.71,0,0,0,0-.23c-.09-.44-.19-.88-.3-1.31a1.48,1.48,0,0,1,.38-1.47l.25-.26a7.68,7.68,0,0,0,.55-.59,1.48,1.48,0,0,1,1.55-.53l1.45.24s0,0,.1-.07a.88.88,0,0,0,.1-.17c.24-.63.48-1.26.71-1.9,0-.06,0-.1-.07-.19a4,4,0,0,0-.48-.32l-.48-.28-.38-.23a1.34,1.34,0,0,1-.67-1.11c0-.42,0-.84,0-1.25v-.35a1.12,1.12,0,0,1,.41-.91,6.61,6.61,0,0,1,.58-.47l.35-.25.45-.32c.21-.18.21-.2.11-.42-.27-.61-.54-1.21-.83-1.81-.07-.14-.1-.17-.29-.13l-.77.18-.74.16a1.33,1.33,0,0,1-1.29-.37c-.27-.27-.54-.53-.82-.78l-.28-.27a1.26,1.26,0,0,1-.39-1c0-.2,0-.4.08-.59l.07-.41a6.45,6.45,0,0,0,.11-.73c0-.14,0-.16-.06-.17-.69-.27-1.39-.51-2.09-.76-.05,0-.08,0-.14.07s-.24.35-.36.53l-.31.47-.32.5a1.11,1.11,0,0,1-.85.5l-.55,0c-.33,0-.65,0-1,0a1.43,1.43,0,0,1-1.36-.68q-.27-.39-.57-.78l-.31-.42c0-.06-.06-.07-.13,0a8,8,0,0,0-2.16,1,2.53,2.53,0,0,1,.09.39c.05.25.11.51.17.77l.14.62a1.16,1.16,0,0,1-.26,1c-.42.46-.85.9-1.3,1.33a1.25,1.25,0,0,1-.77.28,4.21,4.21,0,0,1-.57-.07l-.54-.09c-.24,0-.48-.09-.72-.11s-.17,0-.24.16-.2.46-.28.7l-.36,1.06-.1.28a1.12,1.12,0,0,0,.39.32L92,122a1.09,1.09,0,0,1,.5.89l0,.54c0,.29,0,.59,0,.88a1.55,1.55,0,0,1-.76,1.51c-.37.24-.72.49-1.07.76a.71.71,0,0,0-.12.11l0,.14c.25.6.5,1.2.78,1.79.1.22.15.26.16.26a.91.91,0,0,0,.33,0l.4-.09,1-.22A1.49,1.49,0,0,1,93.62,128.46Zm6.9,0h0A5,5,0,0,1,97,119.93a5.07,5.07,0,0,1,3.46-1.5h0a5,5,0,0,1,5.06,5,4.79,4.79,0,0,1-1.35,3.45A5,5,0,0,1,100.52,128.47Zm-.06-9a4.06,4.06,0,0,0-2.75,1.21,4,4,0,0,0-1.18,2.83,4,4,0,0,0,4,4h0a4,4,0,0,0,2.94-1.25,3.87,3.87,0,0,0,1.08-2.73v0a4,4,0,0,0-4.06-4Zm5.08,4h0Z" fill="#d1d3d4"/><path d="M257.08,228.28c.22-.87.43-1.75.66-2.62.11-.46.25-.9.39-1.35a1.26,1.26,0,0,1,1.28-.94c.7,0,1.39.1,2.09.15a6,6,0,0,0,1.12,0,1.24,1.24,0,0,0,.74-.31c.73-.82,1.41-1.67,2.09-2.53a1.16,1.16,0,0,0,.14-1.11c-.25-.82-.52-1.63-.76-2.44a3.36,3.36,0,0,1-.17-1,.92.92,0,0,1,.26-.66,15.17,15.17,0,0,1,4-2.23,1,1,0,0,1,1.21.32c.59.68,1.2,1.33,1.77,2a1.66,1.66,0,0,0,1.69.67c.9-.14,1.82-.23,2.72-.36a1,1,0,0,0,.79-.56c.28-.51.54-1,.82-1.55s.47-.88.73-1.31a1,1,0,0,1,1.22-.54c1.3.33,2.6.67,3.88,1a1.1,1.1,0,0,1,.79,1.16c0,.7-.11,1.41-.16,2.11,0,.33,0,.67,0,1a1.36,1.36,0,0,0,.52,1.12c.72.57,1.45,1.13,2.14,1.73a1.5,1.5,0,0,0,1.52.29c.88-.27,1.76-.57,2.65-.84a1.2,1.2,0,0,1,1.57.59q.92,1.54,1.77,3.12a1.29,1.29,0,0,1-.31,1.84c-.44.41-.91.77-1.35,1.17s-.63.57-.93.88a1.15,1.15,0,0,0-.34,1c.1.94.2,1.89.32,2.83a1.48,1.48,0,0,0,.87,1.18l1.63.79a9.43,9.43,0,0,1,1,.55,1.11,1.11,0,0,1,.54,1.31c-.32,1.18-.65,2.35-1,3.52a2.63,2.63,0,0,1-.24.51,1,1,0,0,1-1,.59l-2.49-.2-.19,0a1.78,1.78,0,0,0-1.82.82c-.41.59-.89,1.13-1.34,1.69a1.77,1.77,0,0,0-.31,1.82c.27.77.54,1.55.77,2.34a1.19,1.19,0,0,1-.63,1.66c-1.07.63-2.15,1.23-3.25,1.81a1.12,1.12,0,0,1-1.52-.27c-.49-.51-.94-1.06-1.4-1.6-1-1.16-1.22-1.25-2.73-1l-1.76.25a1.62,1.62,0,0,0-1.32.93c-.31.63-.6,1.26-.93,1.88a5.48,5.48,0,0,1-.61.9.82.82,0,0,1-.91.32l-3.7-1a2.3,2.3,0,0,1-.48-.22,1,1,0,0,1-.59-1l.18-2.46a6.26,6.26,0,0,0,0-.75,1.29,1.29,0,0,0-.5-1.06c-.71-.54-1.4-1.09-2.1-1.64a1.42,1.42,0,0,0-1.43-.23c-.78.27-1.57.51-2.35.76a.32.32,0,0,1-.09,0c-1,.28-1.38.18-1.91-.74s-1.15-2.08-1.69-3.14a1.08,1.08,0,0,1,.3-1.53c.6-.54,1.21-1.06,1.84-1.55a1.93,1.93,0,0,0,.79-2c-.13-.84-.22-1.69-.34-2.54a1.07,1.07,0,0,0-.57-.85l-2.25-1.17a2.32,2.32,0,0,1-1.21-1.06Zm27.46,2.42a8.09,8.09,0,0,0-8.83-7.38,8.23,8.23,0,0,0-7.25,8.78,8.11,8.11,0,0,0,8.7,7.35A8,8,0,0,0,284.54,230.7Z" fill="#fff"/><path d="M273.43,251.3a1.64,1.64,0,0,1-.37-.05l-1-.28-2.69-.75a2.27,2.27,0,0,1-.52-.24,1.52,1.52,0,0,1-.91-1.52l.08-1.07c0-.46.07-.93.1-1.39a5.43,5.43,0,0,0,0-.7.79.79,0,0,0-.31-.68q-1-.74-1.92-1.5l-.18-.14a.92.92,0,0,0-1-.14l-1.67.54-.69.22-.1,0a1.81,1.81,0,0,1-2.49-1c-.66-1.14-1.25-2.28-1.7-3.16a1.57,1.57,0,0,1,.42-2.13c.7-.63,1.29-1.14,1.86-1.58a1.43,1.43,0,0,0,.61-1.49c-.08-.53-.15-1.05-.22-1.58l-.12-1a.57.57,0,0,0-.32-.47l-.9-.48-1.34-.69a2.78,2.78,0,0,1-1.44-1.32.42.42,0,0,1,0-.15l0-.31a1,1,0,0,1,0-.17l.2-.8c.15-.61.3-1.22.46-1.83s.26-.92.41-1.37a1.78,1.78,0,0,1,1.76-1.29c.47,0,.94,0,1.4.09l.71.06.29,0a3.84,3.84,0,0,0,.75,0,.9.9,0,0,0,.42-.14c.76-.87,1.47-1.76,2.07-2.51a.7.7,0,0,0,.05-.66c-.1-.35-.22-.71-.33-1.06s-.29-.92-.43-1.38a3.88,3.88,0,0,1-.19-1.13,1.4,1.4,0,0,1,.46-1.05,15.65,15.65,0,0,1,4.09-2.3,1.52,1.52,0,0,1,1.76.46c.2.24.42.48.63.71.39.44.77.88,1.14,1.33a1.17,1.17,0,0,0,1.23.5q.88-.14,1.77-.24l1-.12a.56.56,0,0,0,.41-.31l.48-.9.48-.9c.19-.36.39-.72.6-1.07a1.53,1.53,0,0,1,1.77-.77c1.54.38,2.78.71,3.9,1a1.59,1.59,0,0,1,1.15,1.64,13.93,13.93,0,0,1-.1,1.44l-.06.71c0,.32,0,.64,0,1a.88.88,0,0,0,.33.73l.47.37c.57.45,1.14.9,1.69,1.37a1,1,0,0,0,1,.19l1.29-.41,1.36-.43a1.72,1.72,0,0,1,2.15.81q.92,1.56,1.77,3.15a1.78,1.78,0,0,1-.4,2.44c-.26.24-.53.47-.81.7l-.55.47c-.31.28-.61.56-.9.86a.64.64,0,0,0-.2.56l.06.61c.08.73.16,1.47.26,2.21a1,1,0,0,0,.59.81l.67.32,1,.46a10.44,10.44,0,0,1,1,.58,1.61,1.61,0,0,1,.75,1.86c-.32,1.18-.65,2.35-1,3.53a2.64,2.64,0,0,1-.26.56,1.52,1.52,0,0,1-1.52.89l-2.49-.19-.22,0a1.26,1.26,0,0,0-1.34.61c-.3.43-.63.82-1,1.22l-.4.49a1.26,1.26,0,0,0-.22,1.34c.27.79.53,1.57.77,2.37a1.66,1.66,0,0,1-.86,2.23c-1,.59-2.06,1.18-3.26,1.82a1.64,1.64,0,0,1-2.13-.36c-.4-.43-.78-.87-1.15-1.32l-.26-.3c-.88-1-.94-1.06-2.28-.88l-1.76.26a1.14,1.14,0,0,0-.94.65l-.31.62c-.2.43-.41.86-.63,1.27a5.68,5.68,0,0,1-.66,1A1.37,1.37,0,0,1,273.43,251.3Zm-8.29-9.54a1.87,1.87,0,0,1,1.19.44l.18.14,1.91,1.49a1.79,1.79,0,0,1,.7,1.44,7.09,7.09,0,0,1,0,.8c0,.47-.07.93-.1,1.4l-.09,1.06a.52.52,0,0,0,.34.54,1.68,1.68,0,0,0,.38.18c.89.26,1.78.5,2.68.75l1,.28c.11,0,.23.05.39-.15a4.85,4.85,0,0,0,.56-.83c.21-.4.41-.82.61-1.23l.31-.63a2.12,2.12,0,0,1,1.7-1.2l1.76-.26c1.69-.23,2.08-.08,3.18,1.22l.26.3c.37.44.73.87,1.12,1.28a.64.64,0,0,0,.93.16c1.18-.62,2.24-1.21,3.22-1.79.54-.32.59-.46.41-1.09-.23-.78-.49-1.55-.76-2.32a2.28,2.28,0,0,1,.39-2.3l.41-.5c.32-.38.63-.75.92-1.16a2.26,2.26,0,0,1,2.3-1h.15l2.49.2a.52.52,0,0,0,.54-.33,2.93,2.93,0,0,0,.2-.41c.33-1.17.66-2.34,1-3.51a.61.61,0,0,0-.32-.76,8.62,8.62,0,0,0-.94-.52l-.93-.46-.69-.33a2,2,0,0,1-1.14-1.57c-.1-.74-.18-1.49-.26-2.24l-.07-.6a1.64,1.64,0,0,1,.48-1.37c.31-.32.63-.62,1-.91l.57-.49c.26-.21.52-.43.76-.66.48-.45.52-.67.22-1.24-.57-1-1.16-2.08-1.76-3.11a.73.73,0,0,0-1-.36c-.45.13-.89.28-1.34.42l-1.3.42a2,2,0,0,1-2-.39c-.54-.46-1.1-.9-1.66-1.34l-.47-.38a1.86,1.86,0,0,1-.71-1.51c0-.34,0-.69,0-1s0-.49.07-.74c0-.45.09-.9.09-1.35a.62.62,0,0,0-.42-.67c-1.11-.32-2.34-.65-3.87-1a.54.54,0,0,0-.67.31c-.21.34-.39.68-.58,1l-.48.9c-.16.3-.32.61-.49.91a1.53,1.53,0,0,1-1.15.82l-1,.12c-.58.08-1.16.15-1.73.24a2.16,2.16,0,0,1-2.16-.86c-.36-.44-.74-.86-1.12-1.29l-.64-.72a.52.52,0,0,0-.66-.18,14.43,14.43,0,0,0-3.83,2.16.82.82,0,0,0-.06.26,2.64,2.64,0,0,0,.15.83l.42,1.37c.12.35.23.71.34,1.07a1.67,1.67,0,0,1-.23,1.57c-.6.76-1.32,1.66-2.1,2.55a1.79,1.79,0,0,1-1.07.48,4.87,4.87,0,0,1-.94,0l-.27,0-.73-.06c-.44,0-.89-.08-1.33-.09a.78.78,0,0,0-.79.59c-.14.44-.28.88-.39,1.32-.16.61-.31,1.21-.46,1.82l-.18.72,0,.14a2,2,0,0,0,.94.75l1.35.71.91.47a1.58,1.58,0,0,1,.84,1.22c0,.33.08.65.13,1,.06.52.13,1,.21,1.55a2.44,2.44,0,0,1-1,2.44c-.55.43-1.13.92-1.81,1.53-.39.35-.42.5-.19.94.43.86,1,2,1.67,3.11.41.7.51.74,1.35.51l.75-.24c.55-.18,1.11-.35,1.65-.54A2.38,2.38,0,0,1,265.14,241.76ZM276.48,240a8.6,8.6,0,1,1,8.56-9.33,8.13,8.13,0,0,1-1.79,6.08A8.57,8.57,0,0,1,277.2,240Q276.84,240,276.48,240Zm-.06-16.19-.67,0a7.6,7.6,0,1,0,6.72,12.29,7.17,7.17,0,0,0,1.58-5.33v0A7.56,7.56,0,0,0,276.42,223.79Z" fill="#d1d3d4"/><path d="M310.12,127.27c-5.8,6.39-20.63,18.63-51.07,19.07l-.84,54.23s29.1,4.47,51.91-15.77Z" fill="#fff"/><path d="M265.19,201.46a53.71,53.71,0,0,1-7.06-.4.49.49,0,0,1-.42-.5l.84-54.23a.5.5,0,0,1,.49-.49c29.55-.43,44.46-12,50.71-18.9a.5.5,0,0,1,.55-.14.51.51,0,0,1,.32.47V184.8a.48.48,0,0,1-.17.37C294.51,199.32,275.32,201.46,265.19,201.46Zm-6.48-1.33c3.68.43,30.07,2.8,50.91-15.56v-56c-6.78,7-21.75,17.76-50.08,18.29Z" fill="#231f20"/><path d="M265.72,194.19a.5.5,0,0,1-.5-.48.51.51,0,0,1,.48-.52,66,66,0,0,0,28.46-7.05,40.93,40.93,0,0,0,9.13-6.27V142.76a.5.5,0,0,1,.5-.5.5.5,0,0,1,.5.5v37.32a.48.48,0,0,1-.14.34c-.13.13-12.67,12.9-38.41,13.77Z" fill="#d1d3d4"/><path d="M268.91,159.4a.5.5,0,0,1,0-1c.07,0,7.59-.52,11.63-3.3a.49.49,0,0,1,.69.13.5.5,0,0,1-.12.69c-4.27,2.94-11.82,3.46-12.14,3.48Z" fill="#d1d3d4"/><path d="M268.91,154.73a.51.51,0,0,1-.5-.49.49.49,0,0,1,.49-.51c.07,0,7.11-.24,11.61-3.31a.5.5,0,1,1,.56.83c-4.74,3.24-11.85,3.47-12.15,3.48Z" fill="#d1d3d4"/><path d="M267.06,187.68a.47.47,0,0,1-.33-.14.48.48,0,0,1,0-.7c.09-.11,9.66-10.51,13.67-17a.5.5,0,0,1,.37-.24.53.53,0,0,1,.41.15l7.76,8c1.46-2.88,7.55-15.1,8.79-22.31l-3.59,2.16a.5.5,0,0,1-.52-.86l4.49-2.7a.53.53,0,0,1,.53,0,.52.52,0,0,1,.23.48c-.9,8.08-9,23.64-9.37,24.3a.48.48,0,0,1-.37.26.52.52,0,0,1-.43-.14l-7.79-8.08c-4.24,6.59-13.35,16.5-13.45,16.61A.52.52,0,0,1,267.06,187.68Z" fill="#d1d3d4"/><path d="M299.84,159.4a.5.5,0,0,1-.48-.34l-1.49-4.39a.5.5,0,1,1,.94-.32l1.5,4.39a.51.51,0,0,1-.31.64Z" fill="#d1d3d4"/><path d="M110.32,64.47s1.7,13.33,10,16.19v29s-6.25-2.81-10-12.49Z" fill="#fff"/><path d="M120.32,110.13a.52.52,0,0,1-.21,0c-.26-.12-6.48-3-10.25-12.77a.39.39,0,0,1,0-.18V64.47a.49.49,0,0,1,.47-.49.48.48,0,0,1,.53.43c0,.13,1.75,13.06,9.66,15.78a.51.51,0,0,1,.34.47v29a.5.5,0,0,1-.23.42A.45.45,0,0,1,120.32,110.13Zm-9.5-13.08c2.89,7.39,7.29,10.69,9,11.73V81c-5.18-2-7.77-7.8-9-12Z" fill="#231f20"/></g></svg>