<svg xmlns="http://www.w3.org/2000/svg" viewBox="0 0 1920 1080"><defs><style>.a{fill:#dfdfdf;}.b{font-size:60px;}.b,.d{font-family:Arial-BoldMT, Arial;font-weight:700;}.c{fill:#202020;}.d{font-size:48px;}.e,.g,.i{font-size:36px;font-family:ArialMT, Arial;}.f,.i{fill:#5c6bc0;}.g{fill:#fff;}.h{letter-spacing:-0.037em;}</style></defs><rect class="a" width="1920" height="1080" rx="32"/><text class="b" transform="translate(700.308 151.265)">.fiwl Parsed</text><text class="b" transform="translate(754.24 311.265)">Passive Stage</text><text class="b" transform="translate(715.934 486.265)">Interactive Stage</text><path class="c" d="M1087.294,765.063a131.753,131.753,0,1,0-55.9,123.368,131.443,131.443,0,0,0,48.086-61.317l1.166-3.084,1.031-3.132.61-1.87.115-.353c.163-.469.287-.949.42-1.426l8.055,2.363a123.494,123.494,0,0,0-8.2-26.011,110.7,110.7,0,0,1-17.049,18.605l8.055,2.363c-.123.442-.237.888-.389,1.322l-.107.328-.567,1.733-.953,2.9-1.084,2.859A122.265,122.265,0,0,1,932.7,900.025a121.516,121.516,0,0,1-44.849-18.7,123.142,123.142,0,0,1-34.01-34.735,121.549,121.549,0,0,1-17.8-45.2,123.449,123.449,0,0,1,1.215-48.594,121.746,121.746,0,0,1,20.061-44.25,123.1,123.1,0,0,1,35.7-32.992,122.278,122.278,0,0,1,184.815,90.588Z"/><text class="d" transform="translate(874.697 740.974)">Update<tspan x="9.316" y="57.6">/ Draw</tspan><tspan x="22.699" y="115.2">Loop</tspan></text><polygon class="c" points="857.266 159.445 857.266 217.898 840.477 217.898 866.788 263.445 893.095 217.898 876.306 217.898 876.306 159.445 857.266 159.445"/><polygon class="c" points="857.266 325.445 857.266 391.898 840.477 391.898 866.788 437.445 893.095 391.898 876.306 391.898 876.306 325.445 857.266 325.445"/><polygon class="c" points="857.266 503.445 857.266 607.898 840.477 607.898 866.788 653.445 893.095 607.898 876.306 607.898 876.306 503.445 857.266 503.445"/><polygon class="c" points="1164.249 279.947 1205.581 238.614 1217.453 250.486 1231.055 199.675 1180.246 213.279 1192.118 225.151 1150.785 266.483 1164.249 279.947"/><polygon class="c" points="1054.807 437.445 1054.807 370.992 1071.595 370.992 1045.285 325.445 1018.977 370.992 1035.766 370.992 1035.766 437.445 1054.807 437.445"/><polygon class="c" points="1054.807 653.445 1054.807 548.992 1071.595 548.992 1045.285 503.445 1018.977 548.992 1035.766 548.992 1035.766 653.445 1054.807 653.445"/><text class="b" transform="translate(1205.318 184.265)">Destroyed</text><text class="e" transform="translate(715.747 217.136)">Create</text><text class="e" transform="translate(695.743 388.136)">Activate</text><text class="e" transform="translate(725.767 586.136)">Focus</text><text class="e" transform="translate(1082.8 586.136)">Unfocus</text><text class="e" transform="translate(1082.8 388.136)">Close</text><text class="e" transform="translate(1242.07 244.538)">Destroy</text><polygon class="f" points="553.036 101.445 553.036 74.445 498.036 129.445 553.036 184.445 553.036 157.445 696.036 157.445 696.036 101.445 553.036 101.445"/><text class="g" transform="translate(559.599 141.354)"><tspan class="h">T</tspan><tspan x="20.654" y="0">riggers</tspan></text><polygon class="f" points="595.036 263.445 595.036 236.445 540.036 291.445 595.036 346.445 595.036 319.445 738.036 319.445 738.036 263.445 595.036 263.445"/><text class="g" transform="translate(601.599 303.354)"><tspan class="h">T</tspan><tspan x="20.654" y="0">riggers</tspan></text><polygon class="f" points="561.036 435.445 561.036 408.445 506.036 463.445 561.036 518.445 561.036 491.445 704.036 491.445 704.036 435.445 561.036 435.445"/><text class="g" transform="translate(567.599 475.354)"><tspan class="h">T</tspan><tspan x="20.654" y="0">riggers</tspan></text><text class="i" transform="translate(181.994 141.154)">&lt;script&gt;...&lt;/script&gt;</text><text class="i" transform="translate(353.996 303.154)">onCreated</text><text class="i" transform="translate(349.873 475.793)">onReady</text><polygon class="f" points="1325.036 339.445 1325.036 366.445 1380.036 311.445 1325.036 256.445 1325.036 283.445 1182.036 283.445 1182.036 339.445 1325.036 339.445"/><text class="g" transform="translate(1190.06 322.991)"><tspan class="h">T</tspan><tspan x="20.654" y="0">riggers</tspan></text><text class="i" transform="translate(1395.889 323.793)">onDestroy</text><polygon class="f" points="1347.036 491.445 1347.036 518.445 1402.036 463.445 1347.036 408.445 1347.036 435.445 1204.036 435.445 1204.036 491.445 1347.036 491.445"/><text class="g" transform="translate(1212.06 474.991)"><tspan class="h">T</tspan><tspan x="20.654" y="0">riggers</tspan></text><text class="i" transform="translate(1409.845 475.793)">onSuspend</text><polygon class="f" points="679.036 645.445 679.036 618.445 624.036 673.445 679.036 728.445 679.036 701.445 822.036 701.445 822.036 645.445 679.036 645.445"/><text class="g" transform="translate(685.599 685.354)"><tspan class="h">T</tspan><tspan x="20.654" y="0">riggers</tspan></text><text class="i" transform="translate(470.888 685.793)">onFocus</text><polygon class="f" points="1210.773 957.304 1198.833 981.52 1272.485 956.511 1247.476 882.86 1235.536 907.076 1107.277 843.841 1082.514 894.069 1210.773 957.304"/><text class="g" transform="translate(1096.986 882.858) rotate(26.244)"><tspan class="h">T</tspan><tspan x="20.654" y="0">riggers</tspan></text><text class="i" transform="translate(1281.952 949.865)">onUpdate</text><text class="i" transform="translate(1282.992 993.866)">onDraw</text><polygon class="f" points="1225.487 701 1225.487 728 1280.487 673 1225.487 618 1225.487 645 1082.487 645 1082.487 701 1225.487 701"/><text class="g" transform="translate(1090.511 684.546)"><tspan class="h">T</tspan><tspan x="20.654" y="0">riggers</tspan></text><text class="i" transform="translate(1293.322 685.348)">onUnfocus</text></svg>